<?xml version="1.0"?>
<svg width="38.4" height="65.42" xmlns="http://www.w3.org/2000/svg" xmlns:svg="http://www.w3.org/2000/svg">
 <defs>
  <style>.cls-1{fill:#d9e1e4;}.cls-2{fill:#94b5bf;}.cls-3{fill:#fbe481;}.cls-4{fill:#f8a547;opacity:0.5;}.cls-10,.cls-11,.cls-12,.cls-4,.cls-9{isolation:isolate;}.cls-5{fill:#fca100;}.cls-6{fill:#fff;}.cls-7{fill:#3e3126;}.cls-10,.cls-8,.cls-9{fill:#ffb320;}.cls-11,.cls-9{opacity:0.75;}.cls-10,.cls-12{opacity:0.35;}.cls-11,.cls-12{fill:#e2ab63;}.cls-13{fill:#ffefae;}</style>
 </defs>
 <g class="layer">
  <title>Layer 1</title>
  <g data-name="Layer 2" id="Layer_2">
   <g data-name="Layer 1" id="Layer_1-2">
    <path class="cls-1" d="m11.27,52.8l0,2a1.77,1.77 0 0 0 1.09,1.64c0.19,0.08 0.41,0.17 0.65,0.25l0.13,0.29l0,1.55a1.34,1.34 0 0 0 0.83,1.26l0.43,0.16l0,0.34a4.88,4.88 0 0 0 9.76,0l0,0l0.17,-0.43l0.28,-0.11a1.36,1.36 0 0 0 0.84,-1.26l0,-1.72c0.3,-0.11 0.59,-0.22 0.82,-0.32a1.74,1.74 0 0 0 1.09,-1.64l0,-2l-16.09,-0.01z" id="svg_1"/>
    <path class="cls-2" d="m19.31,62.22a14,14 0 0 1 -4.66,-0.79a0.48,0.48 0 0 1 0.35,-0.9a12.53,12.53 0 0 0 8.2,0a0.49,0.49 0 0 1 0.37,0.9a11.3,11.3 0 0 1 -4.26,0.79z" id="svg_2"/>
    <path class="cls-2" d="m19.46,55.6a24.63,24.63 0 0 1 -8.16,-1.39a0.47,0.47 0 0 1 -0.27,-0.62a0.48,0.48 0 0 1 0.6,-0.29l0,0c0.08,0 7.77,2.92 14.9,0a0.49,0.49 0 0 1 0.63,0.26l0,0a0.49,0.49 0 0 1 -0.26,0.63a19.84,19.84 0 0 1 -7.44,1.41z" id="svg_3"/>
    <path class="cls-2" d="m25.27,56.71l0,1.3l-0.2,0.07a19.06,19.06 0 0 1 -6.17,1.21a18.9,18.9 0 0 1 -6,-1.11l0,-1.25l0,-0.14a18.41,18.41 0 0 0 6,1.12l6.37,-1.2z" id="svg_4"/>
    <path class="cls-6" d="m6.81,35.29a18.48,18.48 0 0 1 2.86,10.38l0,6a0.89,0.89 0 0 0 0.53,0.82a21.26,21.26 0 0 0 6.54,1.8l0,-0.2a20.61,20.61 0 0 1 -5.2,-1.6c-0.33,-0.15 -0.52,0.49 -0.52,0.14l0.82,-3.82a18.36,18.36 0 0 0 -1.62,-12.52c-0.18,-0.33 -0.37,-0.66 -0.58,-1c-3.33,-5.35 -6.37,-8.59 -6.37,-16.21s4.88,-17.79 16.63,-18.18l-0.75,0a18.16,18.16 0 0 0 -14.54,6.9a18.72,18.72 0 0 0 -4.17,11.28c0.01,7.57 3.04,10.81 6.37,16.21z" id="svg_8"/>
    <path class="cls-7" d="m4.72,32.5a0.53,0.53 0 0 1 -0.46,-0.21c-2.47,-3.85 -4.36,-7.25 -4.36,-13.32a18.43,18.43 0 0 1 2.47,-8.81a0.54,0.54 0 0 1 0.95,0.53a17.44,17.44 0 0 0 -2.28,8.28c0,5.78 1.74,8.91 4.19,12.69a0.55,0.55 0 0 1 -0.51,0.84z" id="svg_9"/>
    <path class="cls-7" d="m28.63,43.99l-0.05,0a0.55,0.55 0 0 1 -0.49,-0.59a17.63,17.63 0 0 1 0.38,-2.4a19.92,19.92 0 0 1 2.51,-6.11c0.52,-0.82 1,-1.6 1.51,-2.35c2.66,-4.07 4.76,-7.29 4.76,-13.57c0,-7.39 -6.3,-17.63 -18.13,-17.63a17.55,17.55 0 0 0 -11.93,4.5a0.55,0.55 0 0 1 -0.77,0a0.54,0.54 0 0 1 0,-0.76l0,0a18.6,18.6 0 0 1 12.66,-4.79c12.54,0 19.22,10.87 19.22,18.72c0,6.57 -2.26,10.08 -4.9,14.08c-0.48,0.75 -1,1.52 -1.5,2.34a19.16,19.16 0 0 0 -2.37,5.77a17.42,17.42 0 0 0 -0.36,2.26a0.55,0.55 0 0 1 -0.54,0.53z" id="svg_10"/>
    <path class="cls-7" d="m19.23,54.86a22.79,22.79 0 0 1 -9.27,-2a1.43,1.43 0 0 1 -0.84,-1.31l0,-4.46a0.55,0.55 0 0 1 0.55,-0.54a0.54,0.54 0 0 1 0.54,0.54l0,4.5a0.36,0.36 0 0 0 0.2,0.32a21.4,21.4 0 0 0 17.42,0a0.36,0.36 0 0 0 0.2,-0.32l0,-6.64a0.55,0.55 0 0 1 1.09,-0.15a0.38,0.38 0 0 1 0,0.15l0,6.64a1.46,1.46 0 0 1 -0.84,1.32a21.73,21.73 0 0 1 -9.05,1.95z" id="svg_11"/>
    <path class="cls-7" d="m9.36,42.29a0.54,0.54 0 0 1 -0.53,-0.44a18.32,18.32 0 0 0 -1.45,-4.46a0.55,0.55 0 1 1 1,-0.46a20,20 0 0 1 1.52,4.69a0.55,0.55 0 0 1 -0.43,0.64l-0.11,0.03z" id="svg_12"/>
    <path class="cls-7" d="m20.4,54.19a0.43,0.43 0 0 1 -0.43,-0.43l0,-15.28l-2.13,0l0,15.11a0.43,0.43 0 0 1 -0.85,0l0,-15.11l-2.09,0a2.9,2.9 0 0 1 -2.9,-2.9l0,-0.49a2.91,2.91 0 0 1 5.81,0l0,2.59l2.13,0l0,-2.59a2.91,2.91 0 0 1 5.81,0l0,0.54a2.9,2.9 0 0 1 -2.9,2.9l-2.03,0l0,15.28a0.42,0.42 0 0 1 -0.42,0.38zm0.42,-16.56l2.08,0a2.06,2.06 0 0 0 2,-2l0,-0.54a2.06,2.06 0 0 0 -4.11,0l0.03,2.54zm-5.92,-4.64a2.06,2.06 0 0 0 -2,2l0,0.54a2.06,2.06 0 0 0 2,2l2.11,0l0,-2.44a2.06,2.06 0 0 0 -2,-2.1l-0.11,0z" id="svg_24"/>
    <path class="cls-6" d="m15.59,57.53l-0.11,0a19.9,19.9 0 0 1 -3.21,-1a1.76,1.76 0 0 1 -1.16,-2a0.5,0.5 0 0 1 0.53,-0.43a0.48,0.48 0 0 1 0.44,0.52l0,0a0.94,0.94 0 0 0 0.49,1a21.47,21.47 0 0 0 3.12,0.93a0.5,0.5 0 0 1 0.37,0.58a0.47,0.47 0 0 1 -0.47,0.4z" id="svg_26"/>
    <path class="cls-7" d="m16.04,58.09l0,0a20,20 0 0 1 -4,-1.18a2.18,2.18 0 0 1 -1.36,-2l0,-2a0.43,0.43 0 0 1 0.36,-0.49a0.44,0.44 0 0 1 0.49,0.36a0.29,0.29 0 0 1 0,0.13l0,2a1.34,1.34 0 0 0 0.81,1.18a20.21,20.21 0 0 0 3.82,1.13a0.42,0.42 0 0 1 0.34,0.49l0,0a0.43,0.43 0 0 1 -0.46,0.38z" id="svg_27"/>
    <path class="cls-7" d="m18.9,58.4a0.43,0.43 0 1 1 -0.13,-0.85l0.13,0a19.11,19.11 0 0 0 7,-1.43a1.35,1.35 0 0 0 0.82,-1.25l0,-2a0.43,0.43 0 0 1 0.36,-0.49a0.44,0.44 0 0 1 0.49,0.36a0.29,0.29 0 0 1 0,0.13l0,2a2.17,2.17 0 0 1 -1.35,2a19.82,19.82 0 0 1 -7.32,1.53z" id="svg_28"/>
    <path class="cls-7" d="m19.26,61.4a15.56,15.56 0 0 1 -5.64,-1.11a1.79,1.79 0 0 1 -1.1,-1.66l0,-1.54a0.43,0.43 0 0 1 0.36,-0.49a0.44,0.44 0 0 1 0.49,0.36a0.29,0.29 0 0 1 0,0.13l0,1.54a0.94,0.94 0 0 0 0.58,0.87a14.28,14.28 0 0 0 5.31,1.09a0.44,0.44 0 0 1 0.49,0.36a0.42,0.42 0 0 1 -0.36,0.49l-0.13,0l0,-0.04z" id="svg_29"/>
    <path class="cls-7" d="m18.98,61.4a0.43,0.43 0 1 1 -0.13,-0.85l0.13,0a14.7,14.7 0 0 0 5.32,-1.09a0.92,0.92 0 0 0 0.6,-0.87l0,-1.5a0.43,0.43 0 0 1 0.36,-0.49a0.44,0.44 0 0 1 0.49,0.36a0.29,0.29 0 0 1 0,0.13l0,1.54a1.79,1.79 0 0 1 -1.13,1.66a15.36,15.36 0 0 1 -5.64,1.11z" id="svg_30"/>
    <path class="cls-7" d="m19.12,65.71a5.31,5.31 0 0 1 -5.31,-5.31a0.43,0.43 0 0 1 0.36,-0.49a0.44,0.44 0 0 1 0.49,0.36a0.29,0.29 0 0 1 0,0.13a4.46,4.46 0 0 0 8.92,0l0,0a0.43,0.43 0 0 1 0.36,-0.49a0.44,0.44 0 0 1 0.49,0.36a0.29,0.29 0 0 1 0,0.13a5.31,5.31 0 0 1 -5.31,5.31z" id="svg_31"/>
    <circle class="cls-7" cx="7.05" cy="35.53" id="svg_32" r="0.6"/>
    <circle class="cls-7" cx="9.67" cy="43.84" id="svg_33" r="0.6"/>
    <circle class="cls-7" cx="3.91" cy="9.01" id="svg_34" r="0.6"/>
   </g>
  </g>
 </g>
</svg>