<svg width="56" height="64" viewBox="0 0 56 64" fill="none" xmlns="http://www.w3.org/2000/svg">
<g id="Chart.js" clip-path="url(#clip0_75_790)">
<path id="Vector" d="M53.8263 32.2223C44.882 32.3978 46.745 38.0596 40.4414 39.4919C34.0379 40.9467 33.027 23.8525 26.6251 23.8525C20.2223 23.8525 18.804 40.4572 10.7869 51.8572L10.5586 52.1803L27.7471 62.1023L53.8268 47.0471V32.2223H53.8263Z" fill="#36A2EB"/>
<path id="Vector_2" d="M53.8265 31.7068C50.8322 27.8641 48.8013 23.4463 44.4319 23.4463C36.6992 23.4463 38.7341 36.0603 30.1884 36.0603C21.6416 36.0603 20.7435 22.4922 11.0614 35.2465C7.97635 39.3104 5.49314 43.8414 3.54297 48.1296L27.7464 62.1019L53.8261 47.0467L53.8265 31.7068Z" fill="#FFCE56"/>
<path id="Vector_3" opacity="0.8" d="M1.66837 36.9321C4.60263 28.8067 5.86862 22.2256 11.4704 22.2256C20.0157 22.2256 22.0506 46.2331 29.3759 43.7907C36.7008 41.3495 35.887 28.3284 47.2818 28.3284C49.4503 28.3284 51.6652 29.6572 53.8281 31.8069V47.0468L27.7484 62.102L1.66797 47.0468L1.66837 36.9321Z" fill="#FE6184"/>
<path id="Vector_4" d="M27.7271 63.9898L0.0195312 47.9949V16.0051L27.7271 0.0102539L55.435 16.0051V47.9949L27.7271 63.9898ZM3.27489 46.1159L27.7271 60.2314L52.1796 46.1159V17.8845L27.7271 3.76905L3.27489 17.8845V46.1159Z" fill="#E7E9ED"/>
</g>
<defs>
<clipPath id="clip0_75_790">
<rect width="55.4421" height="64" fill="white"/>
</clipPath>
</defs>
</svg>
