<svg width="94" height="64" viewBox="0 0 94 64" fill="none" xmlns="http://www.w3.org/2000/svg">
<g id="MySQL" clip-path="url(#clip0_75_639)">
<g id="Vector">
<path d="M22.5695 58.3135H18.9431C18.8155 52.1761 18.462 46.405 17.8842 40.9991H17.8523L12.3308 58.3135H9.5697L4.08172 40.9991H4.04939C3.64218 46.1908 3.386 51.9619 3.27916 58.3135H-0.0273438C0.186329 50.5889 0.721071 43.3479 1.57688 36.5886H6.07162L11.3035 52.5513H11.3356L16.5997 36.5886H20.9004C21.8421 44.5049 22.3982 51.7482 22.569 58.3135" fill="#00758F"/>
<path d="M38.3002 42.2851C36.8234 50.3192 34.8755 56.1576 32.4577 59.7997C30.5739 62.6061 28.5101 64.0093 26.2629 64.0093C25.6638 64.0093 24.9251 63.8283 24.0485 63.4688V61.5321C24.4767 61.595 24.9792 61.6285 25.5571 61.6285C26.6055 61.6285 27.4504 61.338 28.0932 60.7582C28.863 60.0516 29.2483 59.2575 29.2483 58.3774C29.2483 57.7763 28.9478 56.5428 28.3495 54.6769L24.3696 42.2851H27.9322L30.7887 51.553C31.4304 53.6573 31.698 55.1262 31.5909 55.9635C33.1532 51.7796 34.2446 47.22 34.8656 42.2851H38.3" fill="#00758F"/>
<path d="M54.1858 52.2917C54.1858 54.1341 53.5107 55.6466 52.1649 56.8301C50.8179 58.0083 49.0084 58.599 46.7425 58.599C44.6231 58.599 42.5691 57.9191 40.5795 56.5705L41.5103 54.7044C43.2225 55.5625 44.7719 55.9911 46.163 55.9911C47.468 55.9911 48.4893 55.6999 49.2282 55.1245C49.9655 54.5451 50.4074 53.7369 50.4074 52.7118C50.4074 51.4219 49.5102 50.3193 47.864 49.3943C46.3442 48.5581 43.3069 46.8122 43.3069 46.8122C41.6613 45.6086 40.8363 44.3171 40.8363 42.1892C40.8363 40.4294 41.4516 39.0069 42.6805 37.9246C43.9122 36.8402 45.5013 36.298 47.4473 36.298C49.4587 36.298 51.2878 36.8362 52.9351 37.9088L52.0983 39.7732C50.6887 39.174 49.2987 38.8732 47.9283 38.8732C46.8163 38.8732 45.9594 39.1409 45.362 39.6795C44.7613 40.2133 44.3898 40.9004 44.3898 41.7377C44.3898 43.0243 45.3066 44.1404 46.9992 45.0832C48.538 45.9199 51.6497 47.6995 51.6497 47.6995C53.3423 48.901 54.1858 50.1819 54.1858 52.2917Z" fill="#F29111"/>
<path fill-rule="evenodd" clip-rule="evenodd" d="M60.6687 53.9675C59.7911 52.5513 59.3514 50.2789 59.3514 47.1454C59.3514 41.6749 61.0105 38.938 64.3269 38.938C66.0609 38.938 67.3334 39.5926 68.1473 40.9005C69.0238 42.3173 69.4634 44.5701 69.4634 47.6598C69.4634 53.174 67.8044 55.9322 64.488 55.9322C62.7545 55.9322 61.4814 55.2783 60.6687 53.9677M73.5719 58.8375L69.5893 56.8683C69.9439 56.5767 70.2806 56.2622 70.5855 55.898C72.2764 53.9048 73.1227 50.9547 73.1227 47.049C73.1227 39.8618 70.3086 36.2662 64.6809 36.2662C61.9205 36.2662 59.7693 37.1776 58.2288 39.003C56.5373 40.9986 55.6927 43.9376 55.6927 47.8211C55.6927 51.6399 56.4411 54.4413 57.9391 56.2209C59.3039 57.8294 61.3679 58.6348 64.1311 58.6348C65.162 58.6348 66.1079 58.5075 66.9676 58.2529L72.1539 61.2791L73.568 58.8372" fill="#F29111"/>
<path d="M86.5724 58.3135H76.2696V36.5886H79.7365V55.641H86.5724V58.3134" fill="#F29111"/>
<path d="M89.0447 58.3112H89.6191V56.1009H90.3709V55.6494H88.2638V56.1009H89.0447V58.3112ZM93.416 58.3112H93.9575V55.6494H93.1431L92.4802 57.4638L91.7587 55.6494H90.9739V58.3112H91.4863V56.2854H91.5154L92.271 58.3112H92.6615L93.416 56.2854V58.3112Z" fill="#F29111"/>
<path fill-rule="evenodd" clip-rule="evenodd" d="M90.9241 29.3116C88.8288 29.2591 87.2061 29.4687 85.8452 30.0467C85.4525 30.204 84.8249 30.204 84.7712 30.7028C84.9821 30.9124 85.0073 31.2534 85.1919 31.5434C85.5051 32.0683 86.0538 32.776 86.5522 33.1444C87.102 33.5646 87.6519 33.9831 88.2286 34.3505C89.2489 34.9832 90.4011 35.3491 91.3945 35.9793C91.9723 36.3463 92.5462 36.8184 93.1241 37.2132C93.411 37.4231 93.5928 37.7648 93.9608 37.8947V37.8153C93.7763 37.5797 93.7248 37.2384 93.5425 36.9744C93.2812 36.7139 93.0189 36.4762 92.7566 36.2148C91.997 35.1913 91.0533 34.2997 90.0347 33.5646C89.1963 32.9856 87.3627 32.198 87.0237 31.2297C87.0237 31.2297 86.9963 31.2019 86.9706 31.176C87.5467 31.1228 88.2286 30.9124 88.7779 30.7532C89.6667 30.5177 90.4783 30.571 91.3945 30.3354C91.8141 30.2296 92.233 30.0975 92.6536 29.9684V29.7305C92.1799 29.2591 91.8409 28.6281 91.3436 28.1823C90.0096 27.0278 88.5418 25.8999 87.0237 24.9535C86.211 24.4284 85.1639 24.0888 84.2997 23.6414C83.987 23.4837 83.464 23.4059 83.28 23.142C82.8085 22.5647 82.5456 21.8044 82.206 21.1209C81.4476 19.6788 80.7131 18.0781 80.0598 16.5532C79.5888 15.5302 79.3008 14.5072 78.7246 13.5617C76.0269 9.09846 73.0959 6.39631 68.5931 3.74464C67.6243 3.19277 66.4725 2.95665 65.2431 2.66782C64.5875 2.64034 63.9336 2.5893 63.2792 2.5635C62.8597 2.37898 62.4402 1.87983 62.0744 1.64372C60.5814 0.699254 56.7348 -1.34783 55.6345 1.35544C54.9275 3.06265 56.6816 4.74182 57.2841 5.60833C57.7287 6.21124 58.3054 6.8949 58.6181 7.57633C58.8016 8.02276 58.8542 8.49611 59.0382 8.96778C59.4566 10.1226 59.8487 11.4091 60.3996 12.486C60.6866 13.0373 61.0004 13.6155 61.3668 14.1119C61.5782 14.4024 61.9435 14.5319 62.0223 15.0058C61.6571 15.5302 61.6286 16.3176 61.4194 16.9744C60.4774 19.9407 60.8432 23.6154 62.1789 25.7937C62.5968 26.4498 63.593 27.894 64.9282 27.3414C66.1062 26.8698 65.8444 25.3735 66.1845 24.0618C66.2628 23.7446 66.2102 23.5365 66.3668 23.3268V23.3799C66.7332 24.1138 67.1007 24.8207 67.4408 25.5582C68.2535 26.8431 69.6659 28.1821 70.845 29.0737C71.4715 29.548 71.9693 30.3604 72.7546 30.65V30.5707H72.7032C72.5454 30.3352 72.3105 30.2294 72.1008 30.0465C71.6298 29.5737 71.1074 28.9959 70.7393 28.4713C69.6402 27.0019 68.6702 25.3735 67.8083 23.6938C67.3882 22.8781 67.0224 21.9865 66.6817 21.1733C66.5251 20.8598 66.5251 20.3859 66.2628 20.2288C65.869 20.8056 65.2945 21.3051 65.007 22.0117C64.5092 23.1417 64.4572 24.5326 64.2726 25.977C64.1686 26.0044 64.2211 25.977 64.1686 26.0292C63.3318 25.8193 63.0437 24.9533 62.7288 24.2207C61.9435 22.3545 61.8115 19.3623 62.4933 17.2096C62.6757 16.6594 63.4632 14.9269 63.1478 14.402C62.9895 13.9012 62.4665 13.6151 62.1789 13.2197C61.8394 12.7211 61.4708 12.0924 61.2376 11.54C60.6088 10.0706 60.2928 8.44244 59.6143 6.97303C59.3 6.28936 58.749 5.58046 58.3054 4.95175C57.807 4.24285 57.2578 3.74426 56.8645 2.90523C56.7348 2.61584 56.5513 2.14304 56.7599 1.82897C56.8114 1.61865 56.9177 1.53957 57.1274 1.48685C57.4658 1.19802 58.4358 1.56481 58.7753 1.72241C59.7446 2.115 60.5563 2.48459 61.3668 3.03478C61.7337 3.29781 62.1264 3.79641 62.5968 3.92877H63.1477C63.9851 4.11104 64.9282 3.9798 65.7141 4.21704C67.1007 4.66291 68.357 5.3191 69.4835 6.028C72.9118 8.20688 75.7393 11.305 77.6495 15.0054C77.9644 15.6084 78.0965 16.1602 78.384 16.7889C78.9338 18.0777 79.6151 19.3901 80.1638 20.6488C80.7131 21.8827 81.2378 23.1416 82.0242 24.1668C82.4158 24.7171 83.987 25.0059 84.694 25.2949C85.2165 25.5304 86.0292 25.7407 86.5007 26.029C87.3907 26.5793 88.2789 27.2103 89.118 27.815C89.5358 28.13 90.8452 28.7854 90.9241 29.3112" fill="#00758F"/>
<path fill-rule="evenodd" clip-rule="evenodd" d="M64.2206 6.49816C63.7765 6.49816 63.4632 6.552 63.1472 6.62997V6.68268H63.1981C63.4095 7.10163 63.7765 7.39271 64.036 7.7595C64.2469 8.17959 64.4303 8.59796 64.6395 9.01859C64.6653 8.9928 64.6904 8.96531 64.6904 8.96531C65.0596 8.70396 65.2425 8.28444 65.2425 7.65349C65.0842 7.46841 65.0596 7.28614 64.9276 7.10162C64.771 6.83971 64.4303 6.70848 64.2206 6.49816Z" fill="#00758F"/>
</g>
</g>
<defs>
<clipPath id="clip0_75_639">
<rect width="93.9865" height="64" fill="white"/>
</clipPath>
</defs>
</svg>
