<svg width="64" height="64" viewBox="0 0 64 64" fill="none" xmlns="http://www.w3.org/2000/svg">
<g id="ReduxToolkit">
<g id="Group">
<path id="Vector" d="M41.9845 41.8562C43.8405 41.6642 45.2485 40.0642 45.1845 38.1442C45.1205 36.2242 43.5205 34.6882 41.6005 34.6882H41.4725C39.4885 34.7522 37.9525 36.4162 38.0165 38.4002C38.0805 39.3602 38.4645 40.1922 39.0405 40.7682C36.8645 45.0562 33.5365 48.1922 28.5445 50.8162C25.1525 52.6082 21.6325 53.2482 18.1125 52.8002C15.2325 52.4162 12.9925 51.1362 11.5845 49.0242C9.53648 45.8882 9.34448 42.4962 11.0725 39.1042C12.2885 36.6722 14.2085 34.8802 15.4245 33.9842C15.1685 33.1522 14.7845 31.7442 14.5925 30.7202C5.31248 37.4402 6.27248 46.5282 9.08848 50.8162C11.2005 54.0162 15.4885 56.0002 20.2245 56.0002C21.5045 56.0002 22.7845 55.8722 24.0645 55.5522C32.2565 53.9522 38.4645 49.0882 41.9845 41.8562Z" fill="#764ABC"/>
<path id="Vector_2" d="M53.2473 33.92C48.3833 28.224 41.2153 25.088 33.0233 25.088H31.9993C31.4233 23.936 30.2073 23.168 28.8633 23.168H28.7353C26.7513 23.232 25.2153 24.896 25.2793 26.88C25.3433 28.8 26.9433 30.336 28.8633 30.336H28.9913C30.3993 30.272 31.6153 29.376 32.1273 28.16H33.2793C38.1433 28.16 42.7513 29.568 46.9113 32.32C50.1113 34.432 52.4153 37.184 53.6953 40.512C54.7833 43.2 54.7193 45.824 53.5673 48.064C51.7753 51.456 48.7673 53.312 44.7993 53.312C42.2393 53.312 39.8073 52.544 38.5273 51.968C37.8233 52.608 36.5433 53.632 35.6473 54.272C38.3993 55.552 41.2153 56.256 43.9033 56.256C50.0473 56.256 54.5913 52.864 56.3193 49.472C58.1753 45.76 58.0473 39.36 53.2473 33.92Z" fill="#764ABC"/>
<path id="Vector_3" d="M20.7374 42.9442C20.8014 44.8642 22.4014 46.4002 24.3214 46.4002H24.4494C26.4334 46.3362 27.9694 44.6722 27.9054 42.6882C27.8414 40.7682 26.2414 39.2322 24.3214 39.2322H24.1934C24.0654 39.2322 23.8734 39.2322 23.7454 39.2962C21.1214 34.9442 20.0334 30.2082 20.4174 25.0882C20.6734 21.2482 21.9534 17.9202 24.1934 15.1682C26.0494 12.8002 29.6334 11.6482 32.0654 11.5842C38.8494 11.4562 41.7294 19.9042 41.9214 23.2962C42.7534 23.4882 44.1614 23.9362 45.1214 24.2562C44.3534 13.8882 37.9534 8.51221 31.8094 8.51221C26.0494 8.51221 20.7374 12.6722 18.6254 18.8162C15.6814 27.0082 17.6014 34.8802 21.1854 41.0882C20.8654 41.5362 20.6734 42.2402 20.7374 42.9442Z" fill="#764ABC"/>
</g>
</g>
</svg>
