<svg width="105" height="64" viewBox="0 0 105 64" fill="none" xmlns="http://www.w3.org/2000/svg">
<g id="Tailwind" clip-path="url(#clip0_75_905)">
<g id="Clip path group">
<mask id="mask0_75_905" style="mask-type:luminance" maskUnits="userSpaceOnUse" x="0" y="0" width="107" height="64">
<g id="prefix__clip0">
<path id="Vector" d="M0 0H106.667V64H0V0Z" fill="white"/>
</g>
</mask>
<g mask="url(#mask0_75_905)">
<g id="Group">
<path id="Vector_2" fill-rule="evenodd" clip-rule="evenodd" d="M53.3333 0C39.1111 0 30.2222 7.11111 26.6667 21.3333C32 14.2222 38.2222 11.5556 45.3333 13.3333C49.3906 14.3467 52.2904 17.2919 55.5002 20.5491C60.7289 25.8568 66.7812 32 80 32C94.2222 32 103.111 24.8889 106.667 10.6667C101.333 17.7778 95.1111 20.4444 88 18.6667C83.9427 17.6533 81.043 14.7081 77.8331 11.4509C72.6044 6.14321 66.5521 0 53.3333 0ZM26.6667 32C12.4444 32 3.55556 39.1111 0 53.3333C5.33333 46.2222 11.5556 43.5556 18.6667 45.3333C22.7239 46.3486 25.6237 49.2919 28.8336 52.5491C34.0622 57.8568 40.1146 64 53.3333 64C67.5555 64 76.4444 56.8889 80 42.6667C74.6667 49.7778 68.4444 52.4444 61.3333 50.6667C57.276 49.6533 54.3763 46.7081 51.1664 43.4509C45.9378 38.1432 39.8854 32 26.6667 32Z" fill="#38BDF8"/>
</g>
</g>
</g>
</g>
<defs>
<clipPath id="clip0_75_905">
<rect width="104.727" height="64" fill="white"/>
</clipPath>
</defs>
</svg>
