<svg width="64" height="64" viewBox="0 0 64 64" fill="none" xmlns="http://www.w3.org/2000/svg">
<g id="Postgres" clip-path="url(#clip0_80_1351)">
<g id="Group">
<g id="Vector">
<path d="M47.457 46.5896C47.8645 43.1971 47.742 42.7021 50.267 43.2496L50.9095 43.3071C52.852 43.3946 55.392 42.9946 56.9095 42.3021C60.122 40.8121 62.027 38.3221 58.8595 38.9771C51.6345 40.4671 51.1095 38.0196 51.1095 38.0196C58.742 26.6946 61.9345 12.3196 59.177 8.80211C51.667 -0.797889 38.6645 3.74211 38.447 3.86211L38.377 3.87461C36.952 3.57461 35.377 3.39961 33.552 3.37461C30.282 3.32461 27.802 4.23211 25.917 5.65961C25.917 5.65961 2.72454 -3.89539 3.80204 17.6771C4.03204 22.2671 10.377 52.4271 17.952 43.3021C20.7245 39.9671 23.3995 37.1496 23.3995 37.1496C24.7245 38.0321 26.317 38.4821 27.9845 38.3196L28.1145 38.2096C28.0761 38.6417 28.0937 39.077 28.167 39.5046C26.217 41.6846 26.792 42.0671 22.892 42.8696C18.947 43.6821 21.267 45.1296 22.777 45.5096C24.612 45.9696 28.857 46.6196 31.727 42.6046L31.612 43.0621C32.377 43.6746 32.3245 47.4621 32.437 50.1671C32.5495 52.8721 32.727 55.3996 33.2795 56.8871C33.832 58.3746 34.4795 62.2121 39.6045 61.1371C43.887 60.2196 47.162 58.8971 47.462 46.6121" fill="black"/>
<path d="M47.457 46.5896C47.8645 43.1971 47.742 42.7021 50.267 43.2496L50.9095 43.3071C52.852 43.3946 55.392 42.9946 56.9095 42.3021C60.122 40.8121 62.027 38.3221 58.8595 38.9771C51.6345 40.4671 51.1095 38.0196 51.1095 38.0196C58.742 26.6946 61.9345 12.3196 59.177 8.80211C51.667 -0.797889 38.6645 3.74211 38.447 3.86211L38.377 3.87461C36.952 3.57461 35.377 3.39961 33.552 3.37461C30.282 3.32461 27.802 4.23211 25.917 5.65961C25.917 5.65961 2.72454 -3.89539 3.80204 17.6771C4.03204 22.2671 10.377 52.4271 17.952 43.3021C20.7245 39.9671 23.3995 37.1496 23.3995 37.1496C24.7245 38.0321 26.317 38.4821 27.9845 38.3196L28.1145 38.2096C28.0761 38.6417 28.0937 39.077 28.167 39.5046C26.217 41.6846 26.792 42.0671 22.892 42.8696C18.947 43.6821 21.267 45.1296 22.777 45.5096C24.612 45.9696 28.857 46.6196 31.727 42.6046L31.612 43.0621C32.377 43.6746 32.3245 47.4621 32.437 50.1671C32.5495 52.8721 32.727 55.3996 33.2795 56.8871C33.832 58.3746 34.4795 62.2121 39.6045 61.1371C43.887 60.2196 47.162 58.8971 47.462 46.6121" stroke="black" stroke-width="5.3725"/>
</g>
<path id="Vector_2" d="M58.8352 38.9996C51.6102 40.4896 51.0852 38.0421 51.0852 38.0421C58.7177 26.7171 61.9102 12.3421 59.1552 8.82459C51.6452 -0.775408 38.6427 3.76709 38.4252 3.88459L38.3552 3.89709C36.767 3.57843 35.1524 3.41019 33.5327 3.39459C30.2627 3.34459 27.7827 4.25209 25.8977 5.67959C25.8977 5.67959 2.70267 -3.87541 3.78267 17.6971C4.01267 22.2871 10.3577 52.4471 17.9327 43.3221C20.7227 39.9671 23.3977 37.1496 23.3977 37.1496C24.7227 38.0321 26.3152 38.4821 27.9827 38.3196L28.1127 38.2096C28.0745 38.6417 28.0921 39.077 28.1652 39.5046C26.2152 41.6846 26.7902 42.0671 22.8902 42.8696C18.9452 43.6821 21.2652 45.1296 22.7752 45.5096C24.6102 45.9696 28.8552 46.6196 31.7252 42.6046L31.6102 43.0621C32.3752 43.6746 32.9102 47.0446 32.8202 50.0996C32.7302 53.1546 32.6702 55.2496 33.2702 56.8896C33.8702 58.5296 34.4702 62.2146 39.5952 61.1396C43.8777 60.2221 46.0952 57.8396 46.4077 53.8746C46.6277 51.0546 47.1227 51.4696 47.1577 48.9496L47.5577 47.7546C48.0152 43.9296 47.6327 42.6971 50.2702 43.2721L50.9127 43.3296C52.8552 43.4171 55.3977 43.0171 56.8877 42.3246C60.1002 40.8346 62.0027 38.3446 58.8352 38.9996Z" fill="#336791"/>
<g id="Group_2">
<g id="Group_3">
<path id="Vector_3" d="M32.0342 41.1674C31.8342 48.2824 32.0842 55.4474 32.7792 57.1674C33.4742 58.8874 34.9667 62.2924 40.0942 61.1974C44.3767 60.2799 45.9367 58.5024 46.6117 54.5799L48.1942 42.0374M25.8892 5.49991C25.8892 5.49991 2.67921 -3.99009 3.75921 17.5824C3.98921 22.1724 10.3342 52.3324 17.9092 43.2074C20.6742 39.8749 23.1742 37.2674 23.1742 37.2674M38.4242 3.76741C37.6242 4.01741 51.3342 -1.24509 59.1292 8.71241C61.8792 12.2299 58.6917 26.6049 51.0592 37.9299" stroke="white" stroke-width="1.79" stroke-linecap="round" stroke-linejoin="round"/>
<path id="Vector_4" d="M51.0617 37.9247C51.0617 37.9247 51.5617 40.3747 58.8117 38.8797C61.9792 38.2247 60.0717 40.7147 56.8617 42.2047C54.2267 43.4297 48.3167 43.7422 48.2192 42.0547C47.9692 37.6922 51.3292 39.0172 51.0867 37.9247C50.8667 36.9397 49.3617 35.9747 48.3717 33.5647C47.5042 31.4647 36.4717 15.3397 51.4317 17.7322C51.9817 17.6197 47.5317 3.48219 33.5317 3.27719C19.5317 3.07219 19.9742 20.4897 19.9742 20.4897" stroke="white" stroke-width="1.79" stroke-linecap="round" stroke-linejoin="bevel"/>
</g>
<g id="Group_4">
<path id="Vector_5" d="M28.1157 39.4197C26.1657 41.5997 26.7407 41.9822 22.8407 42.7847C18.8957 43.5972 21.2157 45.0447 22.7257 45.4247C24.5607 45.8847 28.8057 46.5347 31.6757 42.5172C32.5507 41.2922 31.6707 39.3422 30.4707 38.8472C29.8907 38.6072 29.1157 38.3072 28.1207 39.4222L28.1157 39.4197Z" stroke="white" stroke-width="1.79" stroke-linejoin="round"/>
<path id="Vector_6" d="M27.9878 39.3825C27.7878 38.1 28.4078 36.5775 29.0703 34.7925C30.0653 32.1175 32.3603 29.4425 30.5253 20.95C29.1578 14.625 19.9753 19.6325 19.9753 20.49C19.9753 21.3475 20.3903 24.84 19.8253 28.9025C19.0828 34.2075 23.2003 38.6925 27.9403 38.235" stroke="white" stroke-width="1.79" stroke-linecap="round" stroke-linejoin="round"/>
</g>
</g>
<g id="Group_5">
<path id="Vector_7" d="M25.803 20.3622C25.7605 20.6547 26.3405 21.4372 27.093 21.5422C27.8455 21.6472 28.488 21.0372 28.5305 20.7422C28.573 20.4472 27.993 20.1272 27.2405 20.0222C26.488 19.9172 25.8405 20.0722 25.803 20.3622Z" fill="white" stroke="white" stroke-width="0.5975"/>
<path id="Vector_8" d="M48.7136 19.7645C48.7536 20.057 48.1761 20.8395 47.4236 20.9445C46.6711 21.0495 46.0236 20.4395 45.9861 20.1445C45.9486 19.8495 46.5236 19.5295 47.2761 19.4245C48.0286 19.3195 48.6761 19.4745 48.7136 19.7645Z" fill="white" stroke="white" stroke-width="0.2975"/>
</g>
<path id="Vector_9" d="M51.4044 17.7373C51.5294 20.0373 50.9094 21.5998 50.8294 24.0473C50.7144 27.6023 52.5244 31.6723 49.7969 35.7473" stroke="white" stroke-width="1.79" stroke-linecap="round" stroke-linejoin="round"/>
</g>
</g>
<defs>
<clipPath id="clip0_80_1351">
<rect width="64" height="64" fill="white"/>
</clipPath>
</defs>
</svg>
