<svg width="53" height="64" viewBox="0 0 53 64" fill="none" xmlns="http://www.w3.org/2000/svg">
<g id="Auth0" clip-path="url(#clip0_75_941)">
<path id="Vector" d="M3.40485 27.7784C13.8904 26.0511 22.1031 17.3824 23.8303 6.90334L24.4084 1.86272C24.5495 1.06014 24.0101 -0.0507808 22.9955 0.0262608C15.072 0.64268 7.60426 3.25612 3.43701 4.95777C1.37573 5.79877 0.0273438 7.80868 0.0273438 10.0368V26.4748C0.0273438 27.4507 0.900619 28.1892 1.8638 28.0351L3.40485 27.7847V27.7784Z" fill="white"/>
<path id="Vector_2" d="M28.8868 6.89783C30.6142 17.3836 38.8267 26.0458 49.3125 27.7729L50.8535 28.0233C51.8167 28.1839 52.6899 27.4392 52.6899 26.463V10.025C52.6899 7.7969 51.3414 5.79347 49.2803 4.94599C45.1193 3.24434 37.6453 0.630924 29.7216 0.014504C28.707 -0.0625592 28.1805 1.0611 28.3025 1.85094L28.8804 6.89157L28.8868 6.89783Z" fill="white"/>
<path id="Vector_3" d="M49.3059 32.3758C34.9804 35.201 28.3281 44.7236 28.3281 62.754C28.3281 63.6596 29.2272 64.2823 29.9784 63.7815C36.5666 59.338 51.0652 47.7416 52.5614 33.2297C52.6192 31.3999 50.3332 32.2603 49.3059 32.3758Z" fill="white"/>
<path id="Vector_4" d="M3.41276 32.3769C17.7383 35.2021 24.3906 44.7247 24.3906 62.7551C24.3906 63.6605 23.4915 64.2833 22.7403 63.7824C16.1524 59.3391 1.65347 47.7425 0.157325 33.2309C0.0995388 31.4008 2.38547 32.2612 3.41276 32.3769Z" fill="white"/>
</g>
<defs>
<clipPath id="clip0_75_941">
<rect width="52.693" height="64" fill="white"/>
</clipPath>
</defs>
</svg>
