<svg width="64" height="42" viewBox="0 0 64 42" fill="none" xmlns="http://www.w3.org/2000/svg">
<g id="Cloudinary" clip-path="url(#clip0_75_850)">
<g id="Layer 2">
<g id="Layer 1">
<path id="Vector" d="M51.9067 14.9174C50.5356 10.6182 47.8405 6.86245 44.2067 4.18701C40.5728 1.51156 36.1861 0.0533721 31.6737 0.0208531C27.8586 -0.00102375 24.1096 1.01703 20.8296 2.96562C17.5495 4.91422 14.8624 7.71971 13.057 11.0806C9.73875 11.6753 6.6969 13.3134 4.37416 15.7566C2.05142 18.1998 0.569033 21.3205 0.142751 24.6646C-0.28353 28.0086 0.368546 31.4014 2.00407 34.3492C3.63959 37.2969 6.1732 39.6458 9.23613 41.0539L9.63359 41.2341H9.66008V36.7296C7.55891 35.4398 5.91398 33.5249 4.95585 31.2532C3.99771 28.9815 3.7744 26.467 4.31722 24.062C4.86003 21.657 6.14176 19.4822 7.98275 17.8423C9.82374 16.2024 12.1317 15.1796 14.5832 14.9174L15.6961 14.8008L16.1836 13.7992C17.5679 10.8655 19.761 8.38799 22.5049 6.65786C25.2489 4.92772 28.4298 4.01691 31.6737 4.03248C35.5389 4.05975 39.2841 5.37853 42.3136 7.77911C45.3432 10.1797 47.4831 13.5242 48.3932 17.2809L48.7748 18.7965H50.3646C52.9275 18.8491 55.3682 19.9018 57.1654 21.7297C58.9626 23.5576 59.9738 26.0158 59.983 28.5792C59.983 32.3152 57.8261 35.373 54.1536 36.9204V41.1917L54.4186 41.1069C60.3221 39.1726 63.9893 34.3714 63.9893 28.5792C63.965 25.2267 62.728 21.9964 60.507 19.4851C58.286 16.9738 55.2311 15.3513 51.9067 14.9174Z" fill="#3448C5"/>
<path id="Vector_2" d="M23.9064 40.7149L24.7861 41.5946C24.8099 41.619 24.826 41.6499 24.8324 41.6833C24.8389 41.7168 24.8354 41.7514 24.8225 41.783C24.8095 41.8145 24.7877 41.8415 24.7595 41.8608C24.7314 41.8801 24.6983 41.8907 24.6642 41.8914H17.722C16.8787 41.8914 16.07 41.5564 15.4737 40.9601C14.8774 40.3638 14.5424 39.555 14.5424 38.7117V25.2301C14.5424 25.1837 14.524 25.1393 14.4912 25.1065C14.4584 25.0737 14.4139 25.0553 14.3675 25.0553H12.8837C12.8492 25.0556 12.8153 25.0457 12.7864 25.0269C12.7575 25.008 12.7348 24.981 12.7212 24.9493C12.7076 24.9175 12.7037 24.8825 12.71 24.8485C12.7162 24.8146 12.7324 24.7832 12.7565 24.7585L18.6494 18.8656C18.6657 18.8491 18.6851 18.836 18.7065 18.827C18.7278 18.8181 18.7508 18.8135 18.774 18.8135C18.7971 18.8135 18.8201 18.8181 18.8415 18.827C18.8628 18.836 18.8822 18.8491 18.8985 18.8656L24.7861 24.7585C24.8099 24.7829 24.826 24.8138 24.8324 24.8472C24.8389 24.8807 24.8354 24.9153 24.8225 24.9468C24.8095 24.9784 24.7877 25.0054 24.7595 25.0247C24.7314 25.0439 24.6983 25.0546 24.6642 25.0553H23.1592C23.1123 25.0552 23.0673 25.0735 23.0336 25.1061C23 25.1388 22.9804 25.1833 22.979 25.2301V38.4786C22.9811 39.3171 23.3145 40.1209 23.9064 40.7149Z" fill="#3448C5"/>
<path id="Vector_3" d="M36.9246 40.7152L37.8096 41.5949C37.8336 41.6196 37.8498 41.651 37.8561 41.6849C37.8624 41.7189 37.8585 41.7539 37.8449 41.7857C37.8313 41.8174 37.8086 41.8444 37.7797 41.8633C37.7508 41.8821 37.7169 41.892 37.6824 41.8917H30.7561C29.9128 41.8917 29.104 41.5567 28.5078 40.9604C27.9115 40.3641 27.5765 39.5553 27.5765 38.712V28.6379C27.5765 28.591 27.5582 28.546 27.5256 28.5123C27.4929 28.4787 27.4484 28.4591 27.4016 28.4577H25.9019C25.8678 28.4571 25.8346 28.4464 25.8065 28.4272C25.7784 28.4079 25.7565 28.3809 25.7436 28.3493C25.7306 28.3178 25.7272 28.2832 25.7336 28.2497C25.7401 28.2163 25.7562 28.1854 25.78 28.161L31.6676 22.2787C31.6839 22.2622 31.7032 22.2491 31.7246 22.2401C31.746 22.2312 31.7689 22.2266 31.7921 22.2266C31.8153 22.2266 31.8382 22.2312 31.8596 22.2401C31.881 22.2491 31.9004 22.2622 31.9167 22.2787L37.8096 28.1504C37.8336 28.1751 37.8498 28.2065 37.8561 28.2404C37.8624 28.2744 37.8585 28.3094 37.8449 28.3412C37.8313 28.3729 37.8086 28.3999 37.7797 28.4188C37.7508 28.4376 37.7169 28.4475 37.6824 28.4471H36.1774C36.1305 28.4485 36.086 28.4681 36.0534 28.5017C36.0207 28.5354 36.0025 28.5804 36.0025 28.6273V38.4789C36.0032 39.3167 36.3346 40.1203 36.9246 40.7152Z" fill="#3448C5"/>
<path id="Vector_4" d="M49.9508 40.715L50.8305 41.5947C50.8543 41.6192 50.8704 41.65 50.8769 41.6835C50.8833 41.7169 50.8799 41.7516 50.8669 41.7831C50.854 41.8146 50.8321 41.8417 50.804 41.8609C50.7759 41.8802 50.7427 41.8908 50.7087 41.8915H43.7612C42.9179 41.8915 42.1091 41.5565 41.5128 40.9602C40.9165 40.3639 40.5815 39.5552 40.5815 38.7119V32.0188C40.5815 31.9724 40.5631 31.9279 40.5303 31.8951C40.4975 31.8623 40.453 31.8439 40.4067 31.8439H38.9228C38.8877 31.8443 38.8532 31.834 38.8239 31.8145C38.7947 31.795 38.772 31.7671 38.7588 31.7345C38.7456 31.7018 38.7426 31.666 38.7501 31.6316C38.7577 31.5973 38.7754 31.566 38.801 31.5418L44.6939 25.6542C44.7097 25.6379 44.7286 25.6249 44.7496 25.616C44.7705 25.6071 44.793 25.6025 44.8157 25.6025C44.8385 25.6025 44.861 25.6071 44.8819 25.616C44.9029 25.6249 44.9218 25.6379 44.9376 25.6542L50.8305 31.5418C50.8561 31.566 50.8738 31.5973 50.8814 31.6316C50.8889 31.666 50.8859 31.7018 50.8727 31.7345C50.8595 31.7671 50.8368 31.795 50.8076 31.8145C50.7783 31.834 50.7438 31.8443 50.7087 31.8439H49.1983C49.1519 31.8439 49.1075 31.8623 49.0747 31.8951C49.0419 31.9279 49.0234 31.9724 49.0234 32.0188V38.4787C49.0256 39.3173 49.3589 40.1211 49.9508 40.715Z" fill="#3448C5"/>
</g>
</g>
</g>
<defs>
<clipPath id="clip0_75_850">
<rect width="64" height="41.9077" fill="white"/>
</clipPath>
</defs>
</svg>
