<svg width="177" height="200" viewBox="0 0 177 200" fill="none" xmlns="http://www.w3.org/2000/svg">
<g id="CSS3" clip-path="url(#clip0_75_626)">
<g id="layer1">
<g id="g3013">
<path id="polygon2989" d="M176.329 0L160.265 179.979L88.0565 200L16.047 180.007L0 0H176.329Z" fill="#264DE4"/>
<path id="polygon2991" d="M146.512 168.519L160.24 14.7183H88.1641V184.697L146.512 168.519Z" fill="#2965F1"/>
<path id="polygon2993" d="M36.7891 81.4805L38.7675 103.557H88.1661V81.4805H36.7891Z" fill="#EBEBEB"/>
<path id="polygon2995" d="M88.165 36.7959H88.0886H32.8125L34.8192 58.8733H88.165V36.7959Z" fill="#EBEBEB"/>
<path id="polygon2997" d="M88.1662 161.787V138.817L88.0694 138.843L63.4849 132.204L61.9133 114.596H49.9671H39.7539L42.8465 149.26L88.0646 161.815L88.1662 161.787Z" fill="#EBEBEB"/>
<path id="polygon3005" d="M115.272 103.558L112.71 132.19L88.0898 138.836V161.804L133.344 149.261L133.676 145.531L138.863 87.409L139.402 81.4806L143.387 36.7959H88.0898V58.8733H119.195L117.186 81.4806H88.0898V103.558H115.272Z" fill="white"/>
</g>
</g>
</g>
<defs>
<clipPath id="clip0_75_626">
<rect width="177" height="200" fill="white"/>
</clipPath>
</defs>
</svg>
