<svg width="73" height="64" viewBox="0 0 73 64" fill="none" xmlns="http://www.w3.org/2000/svg">
<g id="ESLint" clip-path="url(#clip0_75_919)">
<path id="logo-center" d="M50.8393 23.293L37.0015 15.3038C36.6552 15.1039 36.2284 15.1039 35.8822 15.3038L22.0442 23.293C21.6981 23.493 21.4844 23.8624 21.4844 24.2624V40.2407C21.4844 40.6404 21.6981 41.0101 22.0442 41.2105L35.8822 49.1996C36.2284 49.3996 36.6552 49.3996 37.0015 49.1996L50.8393 41.2105C51.1856 41.0104 51.399 40.6407 51.399 40.2407V24.2624C51.3986 23.8624 51.1852 23.493 50.8393 23.293Z" fill="#8080F2"/>
<path id="Vector" d="M0.45842 30.5706L16.9918 1.80714C17.5925 0.767143 18.7019 0 19.9027 0H52.9701C54.1713 0 55.281 0.767143 55.8816 1.80714L72.415 30.5071C73.0156 31.5475 73.0156 32.8602 72.415 33.9006L55.8816 62.4282C55.281 63.4682 54.1713 64 52.9701 64H19.903C18.7021 64 17.5925 63.4842 16.9922 62.444L0.458706 33.8697C-0.142438 32.83 -0.142438 31.6106 0.45842 30.5706ZM14.149 44.402C14.149 44.8248 14.4036 45.216 14.7702 45.4278L35.8301 57.5783C36.1964 57.7897 36.6553 57.7897 37.0215 57.5783L58.0978 45.4278C58.4642 45.216 58.7204 44.8252 58.7204 44.402V20.1005C58.7204 19.6775 58.4678 19.2866 58.1013 19.0749L37.0422 6.92428C36.6758 6.71257 36.2176 6.71257 35.8513 6.92428L14.7736 19.0749C14.407 19.2866 14.149 19.6775 14.149 20.1005V44.402Z" fill="#4B32C3"/>
</g>
<defs>
<clipPath id="clip0_75_919">
<rect width="72.8832" height="64" fill="white"/>
</clipPath>
</defs>
</svg>
