<svg width="64" height="64" viewBox="0 0 64 64" fill="none" xmlns="http://www.w3.org/2000/svg">
<g id="Express" clip-path="url(#clip0_75_966)">
<circle id="Ellipse 5" cx="32" cy="32" r="32" fill="white"/>
<path id="Vector" d="M57.7098 46.222C55.8288 46.7003 54.6653 46.243 53.6215 44.6756L46.1979 34.4047L45.1249 32.9827L36.4554 44.7095C35.4649 46.1202 34.4258 46.7343 32.5772 46.2349L43.6786 31.3328L33.3431 17.8721C35.1207 17.5263 36.3488 17.7025 37.4395 19.2941L45.1394 29.6927L52.8959 19.3507C53.8897 17.94 54.9578 17.4035 56.7418 17.9238L52.7343 23.237L47.3048 30.3067C46.6584 31.1147 46.7473 31.6673 47.3419 32.4478L57.7098 46.222ZM6.01293 31.084L6.92108 26.6175C9.39345 17.7784 19.5253 14.1054 26.5126 19.5672C30.5961 22.7797 31.6109 27.3237 31.4089 32.4139H8.39158C8.04577 41.5762 14.6404 47.1059 23.0481 44.2845C25.9971 43.2939 27.7343 40.9848 28.6036 38.0955C29.0448 36.6476 29.7752 36.4214 31.1358 36.8351C30.4409 40.4483 28.8735 43.4668 25.5608 45.3559C20.6112 48.1837 13.5464 47.2691 9.82975 43.3392C7.61593 41.0591 6.70131 38.1698 6.29087 35.0802C6.22623 34.5695 6.09696 34.0831 6 33.5935C6.00862 32.7575 6.01293 31.9216 6.01293 31.0856V31.084ZM8.43359 30.4699H29.2338C29.0981 23.8446 24.9726 19.139 19.3347 19.0986C13.1456 19.0501 8.70183 23.6442 8.43359 30.4699Z" fill="black"/>
</g>
<defs>
<clipPath id="clip0_75_966">
<rect width="64" height="64" fill="white"/>
</clipPath>
</defs>
</svg>
