<svg width="59" height="64" viewBox="0 0 59 64" fill="none" xmlns="http://www.w3.org/2000/svg">
<g id="Jest" clip-path="url(#clip0_75_911)">
<path id="Vector" d="M56.4409 31.5182C56.4409 27.6642 53.7912 24.4215 50.2336 23.4951L58.2012 0H18.7153L26.7014 23.5692C23.255 24.5698 20.7165 27.7568 20.7165 31.5368C20.7165 34.3162 22.1062 36.7805 24.2185 38.2999C23.3847 39.4858 22.4212 40.579 21.328 41.6167C19.2712 43.5437 16.9921 45.0261 14.5277 46.0081C12.3042 44.5072 11.3407 41.8576 12.2116 39.4858C15.6024 38.4482 18.0668 35.2797 18.0668 31.5553C18.0668 26.9786 14.3424 23.2727 9.78425 23.2727C5.20752 23.2727 1.48315 26.9971 1.48315 31.5738C1.48315 33.8344 2.40961 35.9097 3.89195 37.392C3.76224 37.6514 3.63254 37.9108 3.50283 38.1888C2.26137 40.7458 0.853152 43.6364 0.315804 46.879C-0.758892 53.3642 1.00139 58.5709 5.24458 61.5171C7.63485 63.1662 10.266 64 13.101 64C17.9742 64 22.9215 61.5541 27.702 59.1824C31.1114 57.4962 34.632 55.736 38.0969 54.8836C39.3754 54.5686 40.7096 54.3833 42.1178 54.1795C44.9713 53.7719 47.9174 53.3457 50.5671 51.8078C53.6615 50.0104 55.7738 47.0087 56.3853 43.5622C56.8485 40.9126 56.3853 38.2444 55.1994 35.9097C55.9962 34.6312 56.4409 33.1303 56.4409 31.5182ZM52.8277 31.5182C52.8277 34.0938 50.7339 36.1876 48.1583 36.1876C45.5827 36.1876 43.4889 34.0938 43.4889 31.5182C43.4889 30.6844 43.7113 29.8877 44.1004 29.2021C44.2486 28.9427 44.4339 28.6833 44.6192 28.4609C44.8045 28.2386 45.0269 28.0347 45.2677 27.8495L45.2863 27.8309C45.4345 27.7197 45.6013 27.6086 45.768 27.4974C45.768 27.4974 45.7866 27.4974 45.7866 27.4789C45.8607 27.4418 45.9348 27.3862 46.0089 27.3492C46.0274 27.3492 46.046 27.3306 46.0645 27.3306C46.1386 27.2936 46.2313 27.2565 46.3239 27.2195C46.4166 27.1824 46.5092 27.1453 46.5833 27.1083C46.6018 27.1083 46.6204 27.0898 46.6389 27.0898C46.713 27.0712 46.7871 27.0342 46.8613 27.0156C46.8798 27.0156 46.9168 26.9971 46.9354 26.9971C47.028 26.9786 47.1021 26.96 47.1948 26.9415H47.2133L47.4913 26.8859C47.5098 26.8859 47.5468 26.8859 47.5654 26.8674C47.6395 26.8674 47.7136 26.8489 47.7877 26.8489H47.8804C47.973 26.8489 48.0657 26.8303 48.1768 26.8303H48.4177C48.4918 26.8303 48.5474 26.8303 48.6215 26.8489H48.6586C48.8068 26.8674 48.9551 26.8859 49.1033 26.923C51.2156 27.3677 52.8277 29.2577 52.8277 31.5182ZM23.885 3.70585H53.0315L46.3424 23.4395C46.0645 23.4951 45.7866 23.5877 45.5086 23.6804L38.4675 9.32021L31.4079 23.5877C31.1299 23.4951 30.8335 23.4395 30.537 23.3839L23.885 3.70585ZM37.1334 29.9062C36.7814 28.1644 35.8919 26.608 34.632 25.4592L38.4675 17.714L42.3401 25.6259C41.1913 26.7748 40.3575 28.2386 40.024 29.9062H37.1334ZM27.8503 26.9786C27.9429 26.96 28.017 26.9415 28.1097 26.923H28.1653C28.2394 26.9045 28.3135 26.9045 28.3876 26.8859H28.4617C28.5358 26.8859 28.5914 26.8674 28.6655 26.8674H29.3882C29.4623 26.8674 29.5179 26.8859 29.5735 26.8859C29.6105 26.8859 29.6291 26.8859 29.6661 26.9045C29.7402 26.923 29.7958 26.923 29.8699 26.9415C29.8885 26.9415 29.907 26.9415 29.9441 26.96C30.0367 26.9786 30.1294 26.9971 30.2035 27.0156H30.222C30.2961 27.0342 30.3702 27.0527 30.4444 27.0898C30.4629 27.0898 30.4814 27.1083 30.5185 27.1083C30.5741 27.1268 30.6482 27.1453 30.7038 27.1824C30.7223 27.1824 30.7408 27.2009 30.7593 27.2009C30.8335 27.238 30.9076 27.2565 30.9817 27.2936H31.0002C31.0929 27.3306 31.167 27.3677 31.2411 27.4233H31.2596C31.3338 27.4603 31.4079 27.5159 31.482 27.553C31.5005 27.553 31.5005 27.5715 31.519 27.5715C31.5932 27.6086 31.6488 27.6642 31.7229 27.7012L31.7414 27.7197C31.9637 27.8865 32.1676 28.0718 32.3714 28.2571L32.3899 28.2756C32.5752 28.4794 32.7605 28.7018 32.9087 28.9427C33.3905 29.6838 33.6684 30.5547 33.6684 31.4997C33.6684 34.0753 31.5746 36.1691 28.9991 36.1691C26.4235 36.1691 24.3297 34.0753 24.3297 31.4997C24.3112 29.3318 25.812 27.4974 27.8503 26.9786ZM9.61748 26.8489C12.193 26.8489 14.2869 28.9427 14.2869 31.5182C14.2869 34.0938 12.193 36.1876 9.61748 36.1876C7.04192 36.1876 4.94811 34.0938 4.94811 31.5182C4.94811 28.9427 7.04192 26.8489 9.61748 26.8489ZM52.7165 42.9137C52.3089 45.2855 50.845 47.3607 48.6957 48.6022C46.676 49.7695 44.193 50.1401 41.5804 50.5107C40.1537 50.7145 38.6528 50.9369 37.2075 51.2889C33.3534 52.2339 29.6476 54.0869 26.0529 55.8657C21.4577 58.1448 17.1218 60.2942 13.101 60.2942C11.0072 60.2942 9.13572 59.7012 7.35692 58.4598C3.28048 55.6433 3.4843 50.3625 3.96606 47.4719C4.41077 44.7667 5.65223 42.2281 6.8381 39.8008C6.91221 39.6526 6.9678 39.5229 7.04192 39.3746C7.44956 39.5229 7.87574 39.634 8.32044 39.7082C7.61633 43.6364 9.61748 47.6943 13.5086 49.6954L14.2127 50.066L14.9724 49.7881C18.2151 48.6393 21.2168 46.7678 23.8665 44.2664C25.3673 42.8581 26.6459 41.3387 27.7206 39.6896C28.1467 39.7638 28.5729 39.7823 28.9991 39.7823C32.8532 39.7823 36.0958 37.1326 37.0222 33.575H40.1351C41.0616 37.1511 44.3042 39.7823 48.1583 39.7823C49.6962 39.7823 51.123 39.3561 52.3459 38.6335C52.8277 40.0232 52.9759 41.4684 52.7165 42.9137Z" fill="#15C213"/>
</g>
<defs>
<clipPath id="clip0_75_911">
<rect width="58.2144" height="64" fill="white"/>
</clipPath>
</defs>
</svg>
