<svg width="53" height="64" viewBox="0 0 53 64" fill="none" xmlns="http://www.w3.org/2000/svg">
<g id="Prisma" clip-path="url(#clip0_75_917)">
<path id="Vector" fill-rule="evenodd" clip-rule="evenodd" d="M0.495011 43.9295C-0.155744 42.903 -0.165575 41.5956 0.469667 40.5592L24.3877 1.54406C25.7181 -0.62595 28.9303 -0.43621 29.996 1.8753L51.8463 49.2738C52.6569 51.0324 51.7237 53.1016 49.8687 53.6582L15.879 63.8551C14.5114 64.2653 13.0379 63.7156 12.2735 62.5097L0.495011 43.9295ZM27.1473 12.9518C27.3778 11.804 28.9504 11.6385 29.4149 12.7131L44.4869 47.589C44.7705 48.2457 44.4175 49.0029 43.732 49.2074L20.2477 56.2178C19.3845 56.4754 18.5576 55.7212 18.735 54.8379L27.1473 12.9518Z" fill="#2D3748"/>
</g>
<defs>
<clipPath id="clip0_75_917">
<rect width="52.1521" height="64" fill="white"/>
</clipPath>
</defs>
</svg>
