<svg width="105" height="64" viewBox="0 0 105 64" fill="none" xmlns="http://www.w3.org/2000/svg">
<g id="Rails" clip-path="url(#clip0_75_1035)">
<path id="Vector" d="M104.186 25.9496L104.254 26.0166C104.254 26.0166 103.473 26.568 102.645 27.2574C76.5419 7.95545 60.5948 17.0549 55.5855 19.4907C32.8367 32.1845 39.4107 63.3457 39.5444 63.9676L39.5465 63.9771H3.24044C3.24044 63.9771 4.61911 50.3738 14.2701 34.2888C23.9211 18.2039 40.3737 6.02525 53.7472 4.83037C79.5334 2.2473 102.773 24.5666 104.186 25.9496ZM40.9252 54.7857L45.8885 56.578C46.1183 58.378 46.4438 60.0822 46.7853 61.6375L46.9915 62.5524L41.4766 60.5762C41.2469 59.1975 41.0171 57.2214 40.9252 54.7857ZM2.32125 39.8956L7.60635 41.8258C6.96296 43.3136 6.14364 45.2237 5.54862 46.7248L5.30848 47.3406L0.0234375 45.4104C0.483008 44.1696 1.44807 41.8717 2.32125 39.8956ZM42.9933 38.0573L46.3022 40.6769C45.9345 42.1107 45.6551 43.5446 45.4639 44.9784L45.3371 46.0538L41.6145 43.1126C41.9822 41.4581 42.3958 39.7577 42.9933 38.0573ZM51.1277 25.2353L53.1957 28.3604C52.3868 29.206 51.6368 30.0516 50.9692 30.9443L50.4842 31.6233L48.2783 28.3144C49.1055 27.2574 50.0706 26.2004 51.1277 25.2353ZM18.2224 18.4336L21.4853 21.283C20.6581 22.1447 19.8568 23.0581 19.1006 23.9844L18.3603 24.9136L14.8216 21.8804C15.8786 20.7315 17.0275 19.5826 18.2224 18.4336ZM63.7658 18.2498L64.7769 21.283C63.7107 21.6139 62.6445 22.033 61.5783 22.5168L60.7786 22.8915L59.7216 19.7204C60.8705 19.2149 62.2033 18.7094 63.7658 18.2498ZM74.5198 17.1469C75.6963 17.2204 76.9022 17.3527 78.1375 17.5675L79.0695 17.7443L78.8857 20.5936C77.6724 20.3363 76.4592 20.1672 75.2459 20.0863L74.336 20.0421L74.5198 17.1469ZM36.7891 4.46271L38.8571 7.63375C37.961 8.08183 37.0907 8.58161 36.2074 9.11371L35.3184 9.65586L33.2044 6.43887C34.4452 5.70355 35.6401 5.06016 36.7891 4.46271ZM74.6117 2.71635C77.3461 3.49762 78.5229 4.03293 78.9936 4.28358L79.0695 4.32484L78.8857 7.40396C77.9053 7.00567 76.9249 6.6278 75.9309 6.27036L74.4279 5.74951L74.6117 2.71635ZM57.0561 0.00488281L57.9753 2.80826H57.5157C56.5161 2.80826 55.5166 2.83411 54.517 2.9052L53.5174 2.99209L52.6442 0.280624C54.1608 0.096796 55.6315 0.00488281 57.0561 0.00488281Z" fill="#D30001"/>
</g>
<defs>
<clipPath id="clip0_75_1035">
<rect width="104.264" height="64" fill="white"/>
</clipPath>
</defs>
</svg>
