<svg width="64" height="64" viewBox="0 0 64 64" fill="none" xmlns="http://www.w3.org/2000/svg">
<g id="React" clip-path="url(#clip0_75_702)">
<circle id="Ellipse 3" cx="32" cy="32" r="32" fill="white"/>
<path id="Vector" d="M31.5 37C33.9853 37 36 34.9853 36 32.5C36 30.0147 33.9853 28 31.5 28C29.0147 28 27 30.0147 27 32.5C27 34.9853 29.0147 37 31.5 37Z" fill="#61DAFB"/>
<g id="Group">
<path id="Vector_2" d="M32.1222 44.2551C46.5491 44.2551 58.2444 38.9922 58.2444 32.5001C58.2444 26.008 46.5491 20.7451 32.1222 20.7451C17.6953 20.7451 6 26.008 6 32.5001C6 38.9922 17.6953 44.2551 32.1222 44.2551Z" stroke="#61DAFB" stroke-width="2"/>
<path id="Vector_3" d="M21.943 38.3775C29.1565 50.8716 39.5619 58.3686 45.1843 55.1225C50.8066 51.8764 49.5167 39.1166 42.3033 26.6225C35.0898 14.1284 24.6844 6.63145 19.0621 9.8775C13.4397 13.1236 14.7296 25.8834 21.943 38.3775Z" stroke="#61DAFB" stroke-width="2"/>
<path id="Vector_4" d="M21.9419 26.6225C14.7285 39.1165 13.4386 51.8764 19.0609 55.1225C24.6833 58.3685 35.0887 50.8715 42.3022 38.3775C49.5156 25.8834 50.8055 13.1235 45.1832 9.87748C39.5608 6.63142 29.1554 14.1284 21.9419 26.6225Z" stroke="#61DAFB" stroke-width="2"/>
</g>
</g>
<defs>
<clipPath id="clip0_75_702">
<rect width="64" height="64" fill="white"/>
</clipPath>
</defs>
</svg>
