<svg width="64" height="64" viewBox="0 0 64 64" fill="none" xmlns="http://www.w3.org/2000/svg">
<g id="RSpec" clip-path="url(#clip0_75_998)">
<path id="Vector" d="M5.09427 39.6234L10.4078 41.0842C8.90677 37.5211 8.30948 33.6423 8.66907 29.7926C9.02866 25.943 10.334 22.2419 12.4689 19.0185C14.6039 15.795 17.5024 13.1491 20.9066 11.316C24.3108 9.48287 28.1152 8.51941 31.9816 8.51127H32.4152L35.5582 4.22939L33.011 0H31.9816C26.7814 0.00336693 21.6603 1.27391 17.0617 3.70168C12.463 6.12944 8.52519 9.64129 5.58908 13.9333C2.65297 18.2253 0.807006 23.1681 0.210938 28.334C-0.385131 33.4999 0.286657 38.7333 2.16816 43.5812L5.09427 39.6234Z" fill="#00DEF8"/>
<path id="Vector_2" d="M37.4009 4.49871L34.1484 8.67332C39.9461 9.22982 45.3287 11.9254 49.2471 16.2345C53.1655 20.5436 55.3387 26.1575 55.3433 31.9817C55.3433 34.6423 54.8846 37.283 53.9875 39.7877L56.5347 44.7201L61.4123 44.3412C63.0492 40.4257 63.897 36.2256 63.9071 31.9817C63.913 23.9987 60.9274 16.3032 55.5391 10.413C50.1508 4.52272 42.7509 0.865307 34.7989 0.162048L37.4009 4.49871Z" fill="#77F3FF"/>
<path id="Vector_3" d="M55.5633 46.238L53.2808 41.5772C51.4738 45.5735 48.5807 48.982 44.9312 51.4144C41.2816 53.8468 37.0222 55.2054 32.6383 55.3352C28.2543 55.4651 23.922 54.3612 20.1348 52.1491C16.3477 49.937 13.2579 46.7057 11.2175 42.8234L5.5798 41.4151L2.82031 45.1538C5.33138 50.6855 9.36654 55.3873 14.4533 58.7085C19.54 62.0298 25.4677 63.833 31.5422 63.907C37.6168 63.981 43.5866 62.3227 48.7528 59.1264C53.9189 55.9301 58.0674 51.328 60.7125 45.8591L55.5633 46.238Z" fill="#24E4FE"/>
<path id="Vector_4" d="M23.2028 18.1044L14.6367 26.885L16.8051 31.2765L31.7118 49.4905L46.6185 30.8428L48.7868 26.885L40.223 18.1044H23.2028Z" fill="#EF4561"/>
<path id="Vector_5" d="M46.616 30.8976L41.3047 32.4702L43.4182 28.2408L48.7843 27.1566L46.616 30.8976Z" fill="#FF306A"/>
<path id="Vector_6" d="M29.598 33.2827L27.4297 27.8619H35.9935L33.8251 33.2827H29.598Z" fill="#FF1C5A"/>
<path id="Vector_7" d="M38.108 32.1986L35.9922 27.8619H43.4193L41.3057 32.1986H38.108Z" fill="#FF1C5A"/>
<path id="Vector_8" d="M25.3164 32.4702L27.43 28.2408L29.5983 33.5544L25.3164 32.4702Z" fill="#FF306A"/>
<path id="Vector_9" d="M33.8242 33.5544L35.9925 28.2408L38.1084 32.4702L33.8242 33.5544Z" fill="#FF306A"/>
<path id="Vector_10" d="M43.4208 27.9692L39.1914 18.1044H40.2231L48.7868 26.723L43.4208 27.9692Z" fill="#FF1C5A"/>
<path id="Vector_11" d="M35.9922 27.8619L37.0239 18.1044H39.1899L43.4193 27.8619H35.9922Z" fill="#FF306A"/>
<path id="Vector_12" d="M16.8051 31.4385L22.1186 32.4702L20.0028 28.2408L14.6367 27.1566L16.8051 31.4385Z" fill="#FF306A"/>
<path id="Vector_13" d="M25.3136 32.1986L27.4271 27.8619H20L22.1158 32.1986H25.3136Z" fill="#FF1C5A"/>
<path id="Vector_14" d="M20.0028 27.9692L24.2322 18.1044H23.2028L14.6367 26.723L20.0028 27.9692Z" fill="#FF1C5A"/>
<path id="Vector_15" d="M27.4271 27.8619L26.3977 18.1044H24.2294L20 27.8619H27.4271Z" fill="#FF306A"/>
<path id="Vector_16" d="M27.4278 27.6999L31.7097 18.1044H26.3984L27.4278 27.6999Z" fill="#FF1C5A"/>
<path id="Vector_17" d="M35.9928 27.6999L37.0245 18.1044H31.7109L35.9928 27.6999Z" fill="#FF1C5A"/>
<path id="Vector_18" d="M35.9935 27.8619L31.7116 18.2665L27.4297 27.8619H35.9935Z" fill="#FF306A"/>
<path id="Vector_19" d="M22.1172 32.1986L31.7103 49.2188L25.3149 32.1986H22.1172Z" fill="#FF306A"/>
<path id="Vector_20" d="M16.8047 31.4385L22.1182 32.4702L31.7114 49.5452L16.8047 31.4385Z" fill="#FF1C5A"/>
<path id="Vector_21" d="M25.3164 32.4702L29.5983 33.5544L31.7118 49.5452L25.3164 32.4702Z" fill="#FF1C5A"/>
<path id="Vector_22" d="M38.1087 32.4702L31.7109 49.5452L33.8245 33.5544L38.1087 32.4702Z" fill="#FF1C5A"/>
<path id="Vector_23" d="M41.3064 32.1986L31.7109 49.2188L38.1087 32.1986H41.3064Z" fill="#FF306A"/>
<path id="Vector_24" d="M46.6176 30.8976L41.3064 32.4702L31.7109 49.5452L46.6176 30.8976Z" fill="#FF1C5A"/>
<path id="Vector_25" d="M31.7112 49.2736L29.5977 33.2827H33.8248L31.7112 49.2736Z" fill="#FF306A"/>
</g>
<defs>
<clipPath id="clip0_75_998">
<rect width="63.9087" height="64" fill="white"/>
</clipPath>
</defs>
</svg>
