<svg width="86" height="64" viewBox="0 0 86 64" fill="none" xmlns="http://www.w3.org/2000/svg">
<g id="Sass" clip-path="url(#clip0_75_887)">
<path id="Vector" d="M73.4331 36.7666C70.4497 36.7833 67.8664 37.4999 65.6997 38.5666C64.8997 36.9833 64.0997 35.5999 63.9664 34.5666C63.8164 33.3666 63.6331 32.6333 63.8164 31.1999C63.9997 29.7666 64.8331 27.7333 64.8331 27.5666C64.8164 27.4166 64.6497 26.6833 62.9331 26.6666C61.2164 26.6499 59.7331 26.9999 59.5664 27.4499C59.3997 27.8999 59.0664 28.9333 58.8497 29.9999C58.5497 31.5666 55.4164 37.1166 53.6331 40.0333C53.0497 38.8999 52.5497 37.8999 52.4497 37.0999C52.2997 35.8999 52.1164 35.1666 52.2997 33.7333C52.4831 32.2999 53.3164 30.2666 53.3164 30.0999C53.2997 29.9499 53.1331 29.2166 51.4164 29.1999C49.6997 29.1833 48.2164 29.5333 48.0497 29.9833C47.8831 30.4333 47.6997 31.4999 47.3331 32.5333C46.9831 33.5666 42.8164 42.8333 41.7331 45.2499C41.1831 46.4833 40.6997 47.4666 40.3497 48.1333C39.9997 48.7999 40.3331 48.1833 40.2997 48.2499C39.9997 48.8166 39.8331 49.1333 39.8331 49.1333V49.1499C39.5997 49.5666 39.3497 49.9666 39.2331 49.9666C39.1497 49.9666 38.9831 48.8499 39.2664 47.3166C39.8831 44.0999 41.3831 39.0833 41.3664 38.8999C41.3664 38.8166 41.6497 37.9333 40.3997 37.4833C39.1831 37.0333 38.7497 37.7833 38.6497 37.7833C38.5497 37.7833 38.4664 38.0499 38.4664 38.0499C38.4664 38.0499 39.8164 32.3999 35.8831 32.3999C33.4164 32.3999 30.0164 35.0833 28.3331 37.5333C27.2664 38.1166 24.9997 39.3499 22.5997 40.6666C21.6831 41.1666 20.7331 41.6999 19.8331 42.1833L19.6497 41.9833C14.8831 36.8999 6.06641 33.2999 6.43308 26.4666C6.56641 23.9833 7.43308 17.4333 23.3664 9.49994C36.4164 2.99994 46.8664 4.78327 48.6831 8.74994C51.2664 14.4166 43.0997 24.9499 29.5331 26.4666C24.3664 27.0499 21.6497 25.0499 20.9664 24.2999C20.2497 23.5166 20.1497 23.4833 19.8831 23.6333C19.4497 23.8666 19.7164 24.5666 19.8831 24.9833C20.2831 26.0333 21.9497 27.8999 24.7831 28.8333C27.2664 29.6499 33.3331 30.0999 40.6664 27.2666C48.8831 24.0833 55.2997 15.2499 53.4164 7.8666C51.4997 0.349938 39.0331 -2.11673 27.2497 2.0666C20.2331 4.5666 12.6331 8.4666 7.16641 13.5833C0.666413 19.6499 -0.36692 24.9499 0.0664129 27.1499C1.58308 34.9999 12.3997 40.1166 16.7331 43.8999C16.5164 44.0166 16.3164 44.1333 16.1331 44.2333C13.9664 45.2999 5.71641 49.6166 3.64975 54.1833C1.31641 59.3499 4.01641 63.0666 5.81641 63.5666C11.3831 65.1166 17.0831 62.3333 20.1664 57.7499C23.2331 53.1666 22.8664 47.2166 21.4497 44.4999L21.3997 44.3999L23.0997 43.3999C24.1997 42.7499 25.2831 42.1499 26.2331 41.6333C25.6997 43.0833 25.3164 44.7999 25.1164 47.2999C24.8831 50.2333 26.0831 54.0333 27.6664 55.5333C28.3664 56.1833 29.1997 56.1999 29.7164 56.1999C31.5497 56.1999 32.3831 54.6833 33.2997 52.8666C34.4331 50.6499 35.4331 48.0833 35.4331 48.0833C35.4331 48.0833 34.1831 55.0333 37.5997 55.0333C38.8497 55.0333 40.0997 53.4166 40.6664 52.5833V52.5999C40.6664 52.5999 40.6997 52.5499 40.7664 52.4333C40.8997 52.2333 40.9664 52.1166 40.9664 52.1166V52.0833C41.4664 51.2166 42.5831 49.2333 44.2497 45.9499C46.3997 41.7166 48.4664 36.4166 48.4664 36.4166C48.4664 36.4166 48.6664 37.7166 49.2831 39.8499C49.6497 41.1166 50.4497 42.4999 51.0664 43.8499C50.5664 44.5499 50.2664 44.9499 50.2664 44.9499L50.2831 44.9666C49.8831 45.4999 49.4331 46.0666 48.9664 46.6333C47.2664 48.6666 45.2331 50.9833 44.9664 51.6499C44.6497 52.4333 44.7164 53.0166 45.3331 53.4833C45.7831 53.8166 46.5831 53.8833 47.4331 53.8166C48.9664 53.7166 50.0331 53.3333 50.5664 53.0999C51.3997 52.7999 52.3497 52.3499 53.2664 51.6833C54.9331 50.4499 55.9497 48.6999 55.8497 46.3666C55.7997 45.0833 55.3831 43.8166 54.8664 42.6166C55.0164 42.3999 55.1664 42.1833 55.3164 41.9499C57.9497 38.0999 59.9831 33.8666 59.9831 33.8666C59.9831 33.8666 60.1831 35.1666 60.7997 37.2999C61.1164 38.3833 61.7497 39.5666 62.3164 40.7333C59.8497 42.7499 58.2997 45.0833 57.7664 46.6166C56.7831 49.4499 57.5497 50.7333 58.9997 51.0333C59.6497 51.1666 60.5831 50.8666 61.2831 50.5666C62.1497 50.2833 63.1997 49.7999 64.1664 49.0833C65.8331 47.8499 67.4331 46.1333 67.3497 43.8166C67.2997 42.7499 67.0164 41.6999 66.6331 40.6999C68.7331 39.8333 71.4497 39.3333 74.8997 39.7499C82.3164 40.6166 83.7831 45.2499 83.4997 47.1833C83.2164 49.1166 81.6664 50.1833 81.1497 50.5166C80.6331 50.8333 80.4664 50.9499 80.5164 51.1833C80.5831 51.5333 80.8164 51.5166 81.2664 51.4499C81.8831 51.3499 85.1664 49.8666 85.2997 46.2999C85.4997 41.7166 81.1497 36.7166 73.4331 36.7666ZM16.2331 56.0499C13.7831 58.7333 10.3331 59.7499 8.86641 58.8833C7.28308 57.9666 7.89975 54.0166 10.9164 51.1666C12.7497 49.4333 15.1331 47.8333 16.6997 46.8499C17.0497 46.6333 17.5831 46.3166 18.2164 45.9333C18.3164 45.8666 18.3831 45.8333 18.3831 45.8333C18.4997 45.7666 18.6331 45.6833 18.7664 45.5999C19.8831 49.6666 18.8164 53.2333 16.2331 56.0499ZM34.1497 43.8666C33.2997 45.9499 31.4997 51.2999 30.4164 50.9999C29.4831 50.7499 28.9164 46.6999 30.2331 42.6999C30.8997 40.6833 32.3164 38.2833 33.1497 37.3499C34.4997 35.8499 35.9664 35.3499 36.3331 35.9666C36.7664 36.7666 34.6831 42.5666 34.1497 43.8666ZM48.9331 50.9333C48.5664 51.1166 48.2331 51.2499 48.0831 51.1499C47.9664 51.0833 48.2331 50.8333 48.2331 50.8333C48.2331 50.8333 50.0831 48.8499 50.8164 47.9333C51.2331 47.3999 51.7331 46.7833 52.2664 46.0833V46.2833C52.2664 48.6833 49.9664 50.2833 48.9331 50.9333ZM60.3331 48.3333C60.0664 48.1333 60.0997 47.5166 60.9997 45.5833C61.3497 44.8166 62.1497 43.5333 63.5331 42.3166C63.6997 42.8166 63.7997 43.2999 63.7831 43.7499C63.7664 46.7499 61.6331 47.8666 60.3331 48.3333Z" fill="#CF649A"/>
</g>
<defs>
<clipPath id="clip0_75_887">
<rect width="85.3333" height="64" fill="white"/>
</clipPath>
</defs>
</svg>
