<svg width="64" height="64" viewBox="0 0 64 64" fill="none" xmlns="http://www.w3.org/2000/svg">
<g id="ShouldaMatchers" clip-path="url(#clip0_75_669)">
<g id="Layer_1">
<g id="Group">
<g id="Group_2">
<path id="Vector" d="M26.6783 58.3994C26.6783 58.3117 26.766 58.2241 26.766 58.1364C26.766 58.0487 26.8537 57.961 26.8537 57.8734C26.9414 57.698 26.9414 57.435 27.029 57.2597C27.029 57.172 27.029 57.0843 27.1167 56.9966C27.1167 56.909 27.1167 56.8213 27.1167 56.6459C27.2921 55.3308 27.029 54.0157 26.5029 52.7883L19.312 37.8838L34.3953 13.1598C35.5353 11.3187 34.9214 8.95149 33.0799 7.8994L25.1875 3.07735C23.3459 1.9376 20.9782 2.55131 19.9259 4.39246L0.0195312 36.9194L11.2443 60.1529C11.595 60.942 12.2089 61.6433 12.8227 62.2571C12.9104 62.3447 12.9981 62.4324 13.0858 62.4324C13.1735 62.5201 13.2612 62.5201 13.3489 62.6077C13.5243 62.6954 13.6997 62.8708 13.8751 62.9584C13.9628 63.0461 14.0504 63.0461 14.1381 63.0461C14.2258 63.1338 14.3135 63.1338 14.4012 63.2215C16.3305 64.1859 18.6105 64.2735 20.6274 63.3091L23.2582 62.0817C24.8367 61.2926 25.9767 59.9775 26.6783 58.3994ZM17.2074 12.1954L17.9089 10.968L29.3091 17.8942L28.6075 19.1216M18.8736 9.47753L19.5751 8.2501L30.9752 15.1763L30.2737 16.4037L18.8736 9.47753ZM24.3106 4.5678L32.2029 9.38985C33.1676 10.0036 33.5183 11.231 32.9045 12.1954L32.0276 13.6859L20.6274 6.75965L21.5044 5.26919C22.0305 4.21711 23.2582 3.95409 24.3106 4.5678ZM16.2428 13.6859L27.6429 20.6121L17.2074 37.7084L24.8367 53.4897C25.1875 54.1911 25.3629 54.9801 25.3629 55.7692C21.0659 54.3664 16.2428 55.9446 13.7874 59.9775C13.6997 60.1529 13.612 60.3282 13.5243 60.4159C13.2612 60.0652 12.9981 59.7145 12.735 59.2762L2.03648 37.007M22.469 60.5036L19.8382 61.731C18.2597 62.5201 16.5059 62.4324 15.0151 61.5557C15.1028 61.2926 15.2782 61.1173 15.3658 60.8543C17.3828 57.5227 21.5044 56.2076 25.0998 57.5227C24.5736 58.8378 23.6967 59.8899 22.469 60.5036Z" fill="#F15F30"/>
</g>
<g id="Group_3">
<g id="Group_4">
<path id="Vector_2" d="M63.5076 51.9116C63.5076 51.8239 63.5076 51.7362 63.5076 51.6485C63.5076 51.5609 63.5076 51.4732 63.5076 51.3855C63.5076 51.2102 63.5076 50.9472 63.4199 50.7718C63.4199 50.6841 63.4199 50.5965 63.3322 50.4211C63.3322 50.3334 63.3322 50.2458 63.2446 50.0704C62.9815 48.7553 62.3676 47.6156 61.403 46.6512L49.8275 34.9029L55.966 6.5843C56.4045 4.48013 55.0891 2.46364 52.9844 2.02527L44.0397 0.0964501C41.9351 -0.341918 39.9182 0.973187 39.4797 3.07735L31.3242 40.3387L49.5644 58.5748C50.1783 59.1885 50.9675 59.7145 51.7567 60.0652C51.8444 60.0652 51.9321 60.1529 52.0198 60.1529C52.1075 60.1529 52.1952 60.2406 52.2829 60.2406C52.4583 60.3282 52.7214 60.3282 52.8968 60.4159C52.9844 60.4159 53.0721 60.4159 53.1598 60.4159C53.2475 60.4159 53.3352 60.4159 53.4229 60.5036C55.6152 60.7666 57.7199 60.0652 59.2984 58.5748L61.3153 56.5583C62.7184 55.3308 63.4199 53.665 63.5076 51.9116ZM39.392 11.3187L39.6551 9.9159L52.7214 12.7215L52.4583 14.1242M40.0935 8.2501L40.3566 6.84732L53.4229 9.65288L53.1598 11.0557L40.0935 8.2501ZM52.6337 3.77874C53.7737 4.04176 54.4752 5.09385 54.2122 6.2336L53.8614 7.98708L40.7951 5.18152L41.1459 3.42805C41.4089 2.28829 42.4613 1.5869 43.6013 1.84992M51.9321 57.6104C51.9321 57.7857 51.8444 57.961 51.8444 58.1364C51.4937 57.8734 51.0552 57.6104 50.7921 57.3473L33.2535 39.8126L39.0412 13.1598L52.1075 15.9654L47.8105 35.5166L60.1753 47.9663C60.7014 48.4923 61.1399 49.1937 61.403 49.9828C56.9306 49.8951 52.8968 53.0513 51.9321 57.6104ZM60.263 55.2432L58.246 57.2597C57.0183 58.4871 55.3522 59.0131 53.5983 58.6624C53.5983 58.3994 53.686 58.1364 53.686 57.8734C54.5629 54.0157 57.983 51.4732 61.7538 51.5609C61.7538 53.0513 61.2276 54.2788 60.263 55.2432Z" fill="#39BFC2"/>
</g>
</g>
</g>
</g>
</g>
<defs>
<clipPath id="clip0_75_669">
<rect width="63.5231" height="64" fill="white"/>
</clipPath>
</defs>
</svg>
