<svg width="64" height="64" viewBox="0 0 64 64" fill="none" xmlns="http://www.w3.org/2000/svg">
<g id="SocketIO" clip-path="url(#clip0_75_960)">
<path id="Vector" d="M32 60.5C47.7401 60.5 60.5 47.7401 60.5 32C60.5 16.2599 47.7401 3.5 32 3.5C16.2599 3.5 3.5 16.2599 3.5 32C3.5 47.7401 16.2599 60.5 32 60.5Z" stroke="white" stroke-width="50"/>
<path id="Vector_2" d="M24.4112 30.4227C31.2429 24.8412 37.9257 19.0662 44.9062 13.6484C41.2447 19.2747 37.4792 24.8262 33.8177 30.4522C30.6772 30.4672 27.5369 30.4674 24.4112 30.4227ZM30.1862 33.5332C33.3414 33.5332 36.4819 33.5332 39.6224 33.5779C32.7462 39.1294 26.0932 44.9489 19.0977 50.3519C22.7592 44.7257 26.5247 39.1594 30.1862 33.5332Z" fill="white"/>
</g>
<defs>
<clipPath id="clip0_75_960">
<rect width="64" height="64" fill="white"/>
</clipPath>
</defs>
</svg>
