<svg width="58" height="64" viewBox="0 0 58 64" fill="none" xmlns="http://www.w3.org/2000/svg">
<g id="Sqlite" clip-path="url(#clip0_76_1050)">
<path id="Vector" d="M45.0636 2.83984H4.90879C2.21741 2.83984 0.015625 5.04191 0.015625 7.73301V52.0163C0.015625 54.7074 2.21741 56.9095 4.90879 56.9095H31.3556C31.0554 43.7502 35.5492 18.2121 45.0636 2.83984Z" fill="#0F80CC"/>
<path id="Vector_2" d="M43.6073 4.2666H4.91133C3.00028 4.2666 1.44531 5.82129 1.44531 7.73262V48.7847C10.2091 45.4214 23.3624 42.5192 32.4572 42.651C34.2849 33.0946 39.6562 14.3665 43.6073 4.2666Z" fill="url(#paint0_linear_76_1050)"/>
<path id="Vector_3" d="M54.4338 1.39008C51.6836 -1.06221 48.3537 -0.0773005 45.0677 2.83948C44.5798 3.27259 44.0931 3.75335 43.6089 4.26692C37.987 10.2309 32.7686 21.2775 31.1475 29.7142C31.7791 30.995 32.2725 32.6293 32.5971 33.8779C32.6805 34.198 32.7555 34.4987 32.8157 34.7544C32.9584 35.3598 33.0351 35.7521 33.0351 35.7521C33.0351 35.7521 32.9846 35.5615 32.7778 34.9618C32.7384 34.8468 32.6944 34.7213 32.6425 34.5735C32.6154 34.5012 32.5865 34.4297 32.5558 34.3589C32.1891 33.5064 31.1748 31.7072 30.7283 30.9237C30.3744 31.9617 30.0404 33.0065 29.7266 34.0573C31.0154 36.4155 31.8008 40.4567 31.8008 40.4567C31.8008 40.4567 31.7326 40.1948 31.4088 39.2806C31.1212 38.4723 29.6892 35.963 29.35 35.3763C28.7696 37.5188 28.5391 38.965 28.7471 39.3171C29.1508 39.9993 29.5351 41.1768 29.873 42.4787C30.6356 45.4118 31.1654 48.9828 31.1654 48.9828C31.1654 48.9828 31.1825 49.2196 31.2117 49.5837C31.1055 52.0468 31.1691 54.6006 31.36 56.9089C31.6125 59.9646 32.0881 62.5895 32.6944 63.9944L33.1061 63.7701C32.216 61.0023 31.8542 57.3751 32.0125 53.1918C32.2522 46.7978 33.7236 39.0866 36.4423 31.0495C41.0359 18.917 47.4088 9.18263 53.2415 4.53369C47.9252 9.33499 40.7301 24.8759 38.5762 30.6307C36.1645 37.0754 34.4554 43.123 33.4254 48.9172C35.2027 43.485 40.9486 41.1503 40.9486 41.1503C40.9486 41.1503 43.7667 37.6746 47.0601 32.7089C45.0874 33.1589 41.8479 33.9292 40.7629 34.3852C39.1623 35.0565 38.7312 35.2856 38.7312 35.2856C38.7312 35.2856 43.9153 32.1283 48.3634 30.6989C54.4806 21.0643 61.1453 7.37715 54.4338 1.39008Z" fill="#003B57"/>
</g>
<defs>
<linearGradient id="paint0_linear_76_1050" x1="2432.59" y1="95.3507" x2="2432.59" y2="4208.51" gradientUnits="userSpaceOnUse">
<stop stop-color="#97D9F6"/>
<stop offset="0.92024" stop-color="#0F80CC"/>
<stop offset="1" stop-color="#0F80CC"/>
</linearGradient>
<clipPath id="clip0_76_1050">
<rect width="57.2785" height="64" fill="white"/>
</clipPath>
</defs>
</svg>
