<svg width="64" height="64" viewBox="0 0 64 64" fill="none" xmlns="http://www.w3.org/2000/svg">
<g id="Swiper" clip-path="url(#clip0_75_957)">
<path id="Vector" d="M48.9614 5.16953C58.087 10.8065 64.168 20.9001 64.168 32.4141C64.168 50.0872 49.8411 64.4141 32.168 64.4141C28.314 64.4141 24.6191 63.7327 21.1983 62.483L20.8328 62.3469L21.4279 62.1558L22.1929 61.9049L22.5703 61.7788L22.9444 61.6523L23.6824 61.3981L24.4068 61.1422L25.1178 60.8846L25.8152 60.6253L26.1588 60.4951L26.836 60.2332C27.5512 59.9529 28.2433 59.6697 28.9123 59.3834L29.4098 59.1682L30.0196 58.8974C30.2876 58.7767 30.5516 58.6554 30.8116 58.5336L31.1986 58.3505L31.7679 58.0742L32.0475 57.9354L32.3237 57.7961L32.8661 57.5161C37.4188 55.1279 40.5121 52.5336 42.1544 49.689C45.634 43.6622 42.5951 37.2216 33.8712 30.6556L33.1613 30.1233L32.73 29.7926L32.3113 29.4644L31.9052 29.1387L31.5114 28.8155L31.3192 28.6548L31.1301 28.4948L30.7612 28.1765L30.4926 27.9394L30.2309 27.7037L29.8928 27.3916L29.5669 27.0819L29.2531 26.7746L29.1008 26.6218L28.9515 26.4697L28.6621 26.1672C25.2135 22.5012 24.4434 19.3629 26.009 16.6512C26.8059 15.271 28.1874 13.9141 30.1511 12.5925L30.3895 12.4341L30.765 12.1925C30.9348 12.0853 31.1084 11.9784 31.286 11.8717L31.5552 11.7118L31.9698 11.4727L32.3976 11.2345L32.7269 11.0564L33.0637 10.8788L33.524 10.6428C33.8742 10.4662 34.2354 10.2904 34.6076 10.1154L34.9834 9.94061L35.4959 9.70847L35.7571 9.59277L36.2892 9.36214L36.5601 9.2472L37.1117 9.0181L37.3924 8.90395L37.9636 8.67643L38.2541 8.56307L38.8447 8.33717L39.4485 8.11237L39.7552 8.00038L40.3784 7.77725L41.0146 7.55527L41.6639 7.33444L41.9933 7.22446L42.6621 7.0054L43.3438 6.78753L44.0385 6.57088L44.7462 6.35546L45.4669 6.14129L46.386 5.87536L47.3253 5.61143L48.4793 5.29742L48.9614 5.16953ZM32.168 0.414062C36.0595 0.414062 39.7887 1.1087 43.2385 2.38076L43.6071 2.51925L43.3734 2.58999L42.2336 2.94133L41.8604 3.05935L41.1241 3.29677L40.4011 3.53604L39.6916 3.77717L38.9955 4.02019L38.3128 4.26511L37.9765 4.38828L37.1504 4.69833L36.3452 5.01142L35.7162 5.2641L35.4067 5.39119L34.7977 5.64685C28.5741 8.29905 24.4954 11.2729 22.5449 14.6512C19.1406 20.5475 22.2284 26.9039 30.9531 33.4681L31.663 34.0004L32.0941 34.3314L32.5126 34.66L32.7171 34.8233L33.1167 35.1484L33.4082 35.3906L33.6927 35.6316L34.061 35.9508L34.2405 36.1095L34.5903 36.4253C34.7811 36.6001 34.9663 36.7738 35.1457 36.9465L35.4106 37.2048L35.792 37.5893L36.1543 37.9703C39.5881 41.6617 40.322 44.8628 38.6903 47.689C37.6345 49.5178 35.6187 51.3181 32.6474 53.0657L32.3747 53.2244L31.9326 53.4748L31.4774 53.7245C31.2209 53.863 30.9582 54.0011 30.6895 54.1389L30.2819 54.3453L29.7806 54.5922L29.2662 54.8383L28.7387 55.0835L28.47 55.2058L27.9228 55.4498L27.3624 55.6929L26.7889 55.9351L26.4972 56.0558L25.904 56.2966L25.6025 56.4167L25.2977 56.5365L24.6782 56.7754L24.0457 57.0134L23.4 57.2504L22.7412 57.4864L22.0693 57.7213L21.7285 57.8384L21.0369 58.0719L20.6862 58.1882L19.975 58.42L19.2507 58.6508L18.3269 58.9377L17.3827 59.2229L16.6126 59.4497L15.5378 59.7588C6.32158 54.1418 0.167969 43.9966 0.167969 32.4141C0.167969 14.7409 14.4949 0.414062 32.168 0.414062Z" fill="#0080FF"/>
</g>
<defs>
<clipPath id="clip0_75_957">
<rect width="64" height="64" fill="white"/>
</clipPath>
</defs>
</svg>
