<svg width="64" height="64" viewBox="0 0 64 64" fill="none" xmlns="http://www.w3.org/2000/svg">
<g id="Vite" clip-path="url(#clip0_75_786)">
<path id="Vector" d="M63.3668 9.59143L33.7187 62.6075C33.1065 63.702 31.5339 63.7085 30.9125 62.6192L0.676522 9.59653C-0.000370654 8.40952 1.01466 6.97171 2.35978 7.21214L32.0397 12.5172C32.229 12.5511 32.4228 12.5508 32.6122 12.5163L61.6714 7.21974C63.012 6.9754 64.0318 8.40207 63.3668 9.59143Z" fill="url(#paint0_linear_75_786)"/>
<path id="Vector_2" d="M46.1754 0.253839L24.2348 4.553C23.8742 4.62365 23.6072 4.92926 23.5855 5.29601L22.2358 28.0905C22.2041 28.6274 22.6972 29.044 23.2212 28.9232L29.3297 27.5134C29.9012 27.3816 30.4177 27.885 30.3002 28.4598L28.4854 37.3467C28.3632 37.9449 28.9248 38.4563 29.5089 38.2789L33.2818 37.1326C33.8667 36.955 34.4288 37.4679 34.305 38.0665L31.4209 52.026C31.2404 52.8991 32.4019 53.3753 32.8862 52.6267L33.2098 52.1267L51.0881 16.4473C51.3875 15.8499 50.8713 15.1687 50.2151 15.2953L43.9274 16.5089C43.3365 16.6228 42.8338 16.0725 43.0005 15.4944L47.1044 1.26777C47.2714 0.688695 46.7669 0.137949 46.1754 0.253839Z" fill="url(#paint1_linear_75_786)"/>
</g>
<defs>
<linearGradient id="paint0_linear_75_786" x1="-0.0617131" y1="5.31742" x2="36.8377" y2="55.4298" gradientUnits="userSpaceOnUse">
<stop stop-color="#41D1FF"/>
<stop offset="1" stop-color="#BD34FE"/>
</linearGradient>
<linearGradient id="paint1_linear_75_786" x1="30.3337" y1="1.42105" x2="37.0087" y2="47.2103" gradientUnits="userSpaceOnUse">
<stop stop-color="#FFEA83"/>
<stop offset="0.0833333" stop-color="#FFDD35"/>
<stop offset="1" stop-color="#FFA800"/>
</linearGradient>
<clipPath id="clip0_75_786">
<rect width="64" height="64" fill="white"/>
</clipPath>
</defs>
</svg>
