<svg width="64" height="64" viewBox="0 0 64 64" fill="none" xmlns="http://www.w3.org/2000/svg">
<g id="Agora" clip-path="url(#clip0_75_695)">
<g id="Group">
<path id="Vector" d="M31.9723 49.6257C28.4847 49.6257 25.0754 48.5921 22.1756 46.6556C19.2758 44.7191 17.0157 41.9667 15.681 38.7464C14.3464 35.5261 13.9972 31.9826 14.6776 28.564C15.358 25.1454 17.0374 22.0052 19.5035 19.5405C21.9696 17.0758 25.1116 15.3973 28.5322 14.7173C31.9527 14.0373 35.4982 14.3863 38.7203 15.7202C41.9425 17.054 44.6964 19.3129 46.634 22.2111C48.5716 25.1092 49.6058 28.5166 49.6058 32.0022C49.6011 36.6748 47.7417 41.1546 44.4358 44.4586C41.1299 47.7627 36.6475 49.6209 31.9723 49.6257ZM52.5059 6.3273L52.2374 6.68514L51.9689 7.04298L51.6108 6.7746L51.2707 6.50622C47.2255 3.45166 42.5115 1.40231 37.5178 0.52731C32.524 -0.347693 27.3936 -0.0232663 22.55 1.47382C17.7063 2.9709 13.2884 5.59772 9.66069 9.13748C6.03299 12.6772 3.29956 17.0285 1.68598 21.8321C0.0723922 26.6357 -0.375079 31.7539 0.380491 36.7644C1.13606 41.7749 3.07301 46.534 6.03148 50.6489C8.98996 54.7638 12.8851 58.1166 17.3956 60.4305C21.906 62.7445 26.9023 63.9532 31.9723 63.9571C38.9455 63.9772 45.73 61.694 51.2707 57.4623L51.6108 57.2118L51.9689 56.9256L52.2374 57.3013L52.5059 57.6591C53.7124 59.3231 55.243 60.726 57.0058 61.7837C58.7686 62.8414 60.7272 63.532 62.7638 63.8139L63.9454 63.975V0.0293579L62.7638 0.190385C60.7289 0.47115 58.7716 1.15937 57.009 2.21385C55.2464 3.26834 53.7148 4.6674 52.5059 6.3273Z" fill="#099DFD"/>
</g>
</g>
<defs>
<clipPath id="clip0_75_695">
<rect width="63.9563" height="64" fill="white"/>
</clipPath>
</defs>
</svg>
