<svg width="61" height="64" viewBox="0 0 61 64" fill="none" xmlns="http://www.w3.org/2000/svg">
<g id="Angular" clip-path="url(#clip0_80_1331)">
<g id="Clip path group">
<mask id="mask0_80_1331" style="mask-type:luminance" maskUnits="userSpaceOnUse" x="0" y="0" width="61" height="64">
<g id="a">
<path id="Vector" d="M0 0H60.4746V64H0V0Z" fill="white"/>
</g>
</mask>
<g mask="url(#mask0_80_1331)">
<g id="Group">
<path id="Vector_2" d="M60.2243 10.6283L58.0496 44.777L37.2575 0L60.2243 10.6283ZM45.8229 54.7843L30.1123 63.7486L14.4014 54.7843L17.5967 47.0403H42.6275L45.8229 54.7843ZM30.1123 16.9966L38.3447 37.011H21.8796L30.1123 16.9966ZM2.15241 44.777L0 10.6283L22.9668 0L2.15241 44.777Z" fill="url(#paint0_linear_80_1331)"/>
<path id="Vector_3" d="M60.2243 10.6283L58.0496 44.777L37.2575 0L60.2243 10.6283ZM45.8229 54.7843L30.1123 63.7486L14.4014 54.7843L17.5967 47.0403H42.6275L45.8229 54.7843ZM30.1123 16.9966L38.3447 37.011H21.8796L30.1123 16.9966ZM2.15241 44.777L0 10.6283L22.9668 0L2.15241 44.777Z" fill="url(#paint1_linear_80_1331)"/>
</g>
</g>
</g>
</g>
<defs>
<linearGradient id="paint0_linear_80_1331" x1="13.2906" y1="57.9661" x2="61.2418" y2="35.1788" gradientUnits="userSpaceOnUse">
<stop stop-color="#E40035"/>
<stop offset="0.24" stop-color="#F60A48"/>
<stop offset="0.352" stop-color="#F20755"/>
<stop offset="0.494" stop-color="#DC087D"/>
<stop offset="0.745" stop-color="#9717E7"/>
<stop offset="1" stop-color="#6C00F5"/>
</linearGradient>
<linearGradient id="paint1_linear_80_1331" x1="11.1254" y1="7.68651" x2="42.506" y2="43.4831" gradientUnits="userSpaceOnUse">
<stop stop-color="#FF31D9"/>
<stop offset="1" stop-color="#FF5BE1" stop-opacity="0"/>
</linearGradient>
<clipPath id="clip0_80_1331">
<rect width="60.4746" height="64" fill="white"/>
</clipPath>
</defs>
</svg>
