<svg width="65" height="65" viewBox="0 0 65 65" fill="none" xmlns="http://www.w3.org/2000/svg">
<g id="Firebase" clip-path="url(#clip0_75_652)">
<g id="Clip path group">
<mask id="mask0_75_652" style="mask-type:luminance" maskUnits="userSpaceOnUse" x="10" y="1" width="45" height="62">
<g id="a">
<path id="Vector" d="M48.7393 15.1805C48.6797 14.817 48.479 14.4918 48.1807 14.2757C47.8825 14.0596 47.511 13.9701 47.1471 14.0267C46.8611 14.0647 46.5965 14.199 46.3971 14.4075L39.1975 21.5955L33.5671 10.8423C33.4831 10.6808 33.3681 10.5375 33.2287 10.4205C33.0893 10.3035 32.9281 10.2152 32.7545 10.1605C32.5809 10.1059 32.3983 10.086 32.217 10.102C32.0357 10.118 31.8593 10.1696 31.698 10.2539C31.4535 10.3948 31.2505 10.5978 31.1096 10.8423L28.0405 16.7266L20.2987 2.28127C20.2119 2.12263 20.0946 1.9827 19.9535 1.86952C19.8125 1.75635 19.6505 1.67214 19.4768 1.62176C19.3031 1.57137 19.1212 1.55579 18.9415 1.57591C18.7618 1.59603 18.5878 1.65145 18.4296 1.73899C18.2417 1.83926 18.0789 1.98051 17.953 2.15228C17.8272 2.32404 17.7416 2.52192 17.7027 2.73124L10.2031 50.6361L30.2212 61.92C30.8383 62.2583 31.5307 62.4357 32.2345 62.4357C32.9383 62.4357 33.6307 62.2583 34.2478 61.92L54.4389 50.6822L48.7393 15.1805Z" fill="white"/>
</g>
</mask>
<g mask="url(#mask0_75_652)">
<g id="Group">
<path id="Vector_2" d="M10.2031 50.636L17.7027 2.7312C17.7595 2.37708 17.9538 2.0597 18.2432 1.84798C18.5327 1.63627 18.8941 1.54733 19.2487 1.60049C19.4582 1.63891 19.6567 1.7229 19.8302 1.84651C20.0037 1.97013 20.1478 2.13035 20.2525 2.31584L27.9944 16.7727L31.0634 10.8884C31.1474 10.7269 31.2624 10.5836 31.4018 10.4666C31.5412 10.3496 31.7024 10.2613 31.876 10.2067C32.0496 10.152 32.2322 10.1321 32.4135 10.1481C32.5948 10.1641 32.7712 10.2157 32.9325 10.3C33.177 10.4409 33.38 10.6439 33.521 10.8884L54.4043 50.636H10.2031Z" fill="#FFA000"/>
<path id="Vector_3" opacity="0.12" d="M35.7807 1.92361L-0.863281 -1.20312V65.1621L10.2014 50.6361L35.7807 1.92361Z" fill="url(#paint0_linear_75_652)"/>
<path id="Vector_4" d="M36.0939 31.9797L28.0174 16.7383L10.2031 50.6362L36.0939 31.9797Z" fill="#F57C00"/>
<path id="Vector_5" opacity="0.2" d="M-0.863281 -1.20312H65.502V65.1621H-0.863281V-1.20312Z" fill="url(#paint1_linear_75_652)"/>
<path id="Vector_6" d="M54.4505 50.6361L48.6816 15.1459C48.622 14.7825 48.4213 14.4573 48.1231 14.2412C47.8248 14.0251 47.4533 13.9356 47.0894 13.9922C46.8042 14.0328 46.5405 14.1666 46.3394 14.3729L10.2031 50.6361L30.2212 61.9201C30.8383 62.2584 31.5307 62.4357 32.2345 62.4357C32.9383 62.4357 33.6307 62.2584 34.2478 61.9201L54.4505 50.6361Z" fill="#FFCA28"/>
<path id="Vector_7" d="M48.7393 15.1805C48.6797 14.817 48.479 14.4918 48.1807 14.2757C47.8825 14.0596 47.511 13.9701 47.1471 14.0267C46.8611 14.0647 46.5965 14.199 46.3971 14.4075L39.1975 21.5955L33.5671 10.8423C33.4831 10.6808 33.3681 10.5375 33.2287 10.4205C33.0893 10.3035 32.9281 10.2152 32.7545 10.1605C32.5809 10.1059 32.3983 10.086 32.217 10.102C32.0357 10.118 31.8593 10.1696 31.698 10.2539C31.4535 10.3948 31.2505 10.5978 31.1096 10.8423L28.0405 16.7266L20.2987 2.28127C20.2119 2.12263 20.0946 1.9827 19.9535 1.86952C19.8125 1.75635 19.6505 1.67214 19.4768 1.62176C19.3031 1.57137 19.1212 1.55579 18.9415 1.57591C18.7618 1.59603 18.5878 1.65145 18.4296 1.73899C18.2417 1.83926 18.0789 1.98051 17.953 2.15228C17.8272 2.32404 17.7416 2.52192 17.7027 2.73124L10.2031 50.6361L10.4108 50.7399L39.2552 21.8955L46.4548 14.7074C46.5818 14.5755 46.7341 14.4706 46.9026 14.3989C47.0711 14.3273 47.2524 14.2903 47.4355 14.2903C47.6186 14.2903 47.7999 14.3273 47.9684 14.3989C48.1369 14.4706 48.2892 14.5755 48.4162 14.7074C48.6294 14.9081 48.7644 15.178 48.797 15.4689L54.4735 50.613H54.5428L48.7393 15.1805ZM10.2724 50.5668L17.7027 3.07737C17.7266 2.89931 17.7859 2.72781 17.877 2.57295C17.9681 2.41808 18.0892 2.28295 18.2332 2.1755C18.3772 2.06804 18.5412 1.9904 18.7156 1.94715C18.8899 1.90389 19.0712 1.89589 19.2487 1.9236C19.4591 1.95969 19.6586 2.04275 19.8323 2.1666C20.0061 2.29045 20.1498 2.4519 20.2525 2.63894L27.9944 17.0958L31.0634 11.2115C31.1462 11.0489 31.2606 10.9045 31.3999 10.7867C31.5391 10.6688 31.7005 10.5799 31.8745 10.5251C32.0485 10.4703 32.2317 10.4508 32.4134 10.4676C32.595 10.4844 32.7715 10.5373 32.9325 10.6231C33.177 10.764 33.38 10.967 33.521 11.2115L39.0475 21.7224L10.2724 50.5668Z" fill="white" fill-opacity="0.2"/>
<path id="Vector_8" opacity="0.2" d="M34.2445 61.5276C33.6259 61.868 32.9314 62.0465 32.2254 62.0465C31.5194 62.0465 30.8248 61.868 30.2063 61.5276L10.2344 50.3821V50.6937L30.2178 61.9199C30.8349 62.2582 31.5273 62.4356 32.2311 62.4356C32.9349 62.4356 33.6273 62.2582 34.2445 61.9199L54.4356 50.6821V50.3706L34.2445 61.5276Z" fill="#A52714"/>
<path id="Vector_9" d="M48.7393 15.1805C48.6797 14.817 48.479 14.4918 48.1807 14.2757C47.8825 14.0596 47.511 13.9701 47.1471 14.0267C46.8611 14.0647 46.5965 14.199 46.3971 14.4075L39.1975 21.5955L33.5671 10.8423C33.4831 10.6808 33.3681 10.5375 33.2287 10.4205C33.0893 10.3035 32.9281 10.2152 32.7545 10.1605C32.5809 10.1059 32.3983 10.086 32.217 10.102C32.0357 10.118 31.8593 10.1696 31.698 10.2539C31.4535 10.3948 31.2505 10.5978 31.1096 10.8423L28.0405 16.7266L20.2987 2.28127C20.2119 2.12263 20.0946 1.9827 19.9535 1.86952C19.8125 1.75635 19.6505 1.67214 19.4768 1.62176C19.3031 1.57137 19.1212 1.55579 18.9415 1.57591C18.7618 1.59603 18.5878 1.65145 18.4296 1.73899C18.2417 1.83926 18.0789 1.98051 17.953 2.15228C17.8272 2.32404 17.7416 2.52192 17.7027 2.73124L10.2031 50.6361L30.2212 61.92C30.8383 62.2583 31.5307 62.4357 32.2345 62.4357C32.9383 62.4357 33.6307 62.2583 34.2478 61.92L54.4389 50.6822L48.7393 15.1805Z" fill="url(#paint2_linear_75_652)"/>
</g>
</g>
</g>
</g>
<defs>
<linearGradient id="paint0_linear_75_652" x1="18.8202" y1="34.2409" x2="16.0626" y2="32.7987" gradientUnits="userSpaceOnUse">
<stop stop-color="#A52714"/>
<stop offset="0.4" stop-color="#A52714" stop-opacity="0.5"/>
<stop offset="0.8" stop-color="#A52714" stop-opacity="0"/>
</linearGradient>
<linearGradient id="paint1_linear_75_652" x1="30.5656" y1="30.2142" x2="29.3311" y2="28.9797" gradientUnits="userSpaceOnUse">
<stop stop-color="#A52714" stop-opacity="0.8"/>
<stop offset="0.5" stop-color="#A52714" stop-opacity="0.21"/>
<stop offset="1" stop-color="#A52714" stop-opacity="0"/>
</linearGradient>
<linearGradient id="paint2_linear_75_652" x1="9.0242" y1="12.2682" x2="55.2022" y2="58.477" gradientUnits="userSpaceOnUse">
<stop stop-color="white" stop-opacity="0.1"/>
<stop offset="1" stop-color="white" stop-opacity="0"/>
</linearGradient>
<clipPath id="clip0_75_652">
<rect width="64" height="64" fill="white" transform="translate(0.1875 0.296875)"/>
</clipPath>
</defs>
</svg>
