<svg width="200" height="200" viewBox="0 0 200 200" fill="none" xmlns="http://www.w3.org/2000/svg">
<g id="JavaScript" clip-path="url(#clip0_75_903)">
<g id="Vector">
<path d="M0 47.8496C0 21.423 21.423 0 47.8496 0H152.15C178.577 0 200 21.423 200 47.8496V152.15C200 178.577 178.577 200 152.15 200H47.8496C21.423 200 0 178.577 0 152.15V47.8496Z" fill="white"/>
<path d="M178.571 0H21.4286C9.59821 0 0 9.59821 0 21.4286V178.571C0 190.402 9.59821 200 21.4286 200H178.571C190.402 200 200 190.402 200 178.571V21.4286C200 9.59821 190.402 0 178.571 0ZM108.839 155.982C108.839 175.446 97.4107 184.33 80.7589 184.33C65.7143 184.33 57.0089 176.563 52.5446 167.143L67.8571 157.902C70.8036 163.125 73.4821 167.545 79.9554 167.545C86.1161 167.545 90.0446 165.134 90.0446 155.714V91.8304H108.839V155.982ZM153.304 184.33C135.848 184.33 124.554 176.027 119.063 165.134L134.375 156.295C138.393 162.857 143.661 167.723 152.902 167.723C160.67 167.723 165.67 163.839 165.67 158.438C165.67 152.009 160.58 149.732 151.964 145.937L147.277 143.929C133.705 138.17 124.732 130.893 124.732 115.58C124.732 101.473 135.491 90.7589 152.232 90.7589C164.196 90.7589 172.768 94.9107 178.929 105.804L164.286 115.179C161.071 109.42 157.589 107.143 152.187 107.143C146.696 107.143 143.214 110.625 143.214 115.179C143.214 120.804 146.696 123.08 154.777 126.607L159.464 128.616C175.446 135.446 184.42 142.455 184.42 158.17C184.42 175.045 171.116 184.33 153.304 184.33Z" fill="#FDE047"/>
</g>
</g>
<defs>
<clipPath id="clip0_75_903">
<rect width="200" height="200" fill="white"/>
</clipPath>
</defs>
</svg>
