<svg width="64" height="64" viewBox="0 0 64 64" fill="none" xmlns="http://www.w3.org/2000/svg">
<g id="Lottie" clip-path="url(#clip0_75_820)">
<g id="Clip path group">
<g id="Group">
<path id="Vector" d="M47.7915 0H16.1882C7.24772 0 0 7.24768 0 16.1882V47.7915C0 56.7319 7.24772 63.9796 16.1882 63.9796H47.7915C56.7319 63.9796 63.9796 56.7319 63.9796 47.7915V16.1882C63.9796 7.24768 56.7319 0 47.7915 0Z" fill="#00DDB3"/>
<path id="Vector_2" d="M48.6277 14.3301C37.6146 14.3301 33.5335 22.1935 30.2519 28.5106L28.1082 32.5522C24.6333 39.2515 22.0371 43.3238 15.3466 43.3238C14.9313 43.3238 14.52 43.4058 14.1362 43.5644C13.7525 43.7235 13.4037 43.9563 13.11 44.2503C12.8163 44.5438 12.5832 44.8926 12.4243 45.2763C12.2653 45.66 12.1836 46.0712 12.1836 46.4869C12.1847 47.3252 12.5184 48.1291 13.1113 48.7219C13.7042 49.315 14.5081 49.6487 15.3466 49.6496C26.3642 49.6496 30.4453 41.7861 33.7268 35.4691L35.8663 31.4276C39.3455 24.7283 41.9416 20.656 48.6277 20.656C49.0437 20.6565 49.4553 20.5752 49.8394 20.4164C50.224 20.2578 50.5732 20.0249 50.8672 19.7311C51.1615 19.4373 51.3947 19.0885 51.5542 18.7045C51.7133 18.3204 51.7953 17.9088 51.7953 17.493C51.794 16.6537 51.4599 15.8493 50.8659 15.2562C50.2719 14.6632 49.4672 14.3301 48.6277 14.3301Z" fill="white"/>
</g>
</g>
</g>
<defs>
<clipPath id="clip0_75_820">
<rect width="64" height="64" fill="white"/>
</clipPath>
</defs>
</svg>
