<svg width="60" height="64" viewBox="0 0 60 64" fill="none" xmlns="http://www.w3.org/2000/svg">
<g id="MUI">
<path id="Vector" fill-rule="evenodd" clip-rule="evenodd" d="M50.57 41.9601C50.8235 41.8145 51.0342 41.6049 51.1811 41.3521C51.3279 41.0994 51.4057 40.8124 51.4067 40.5201L51.4367 30.8751C51.4376 30.5828 51.5154 30.2959 51.6622 30.0431C51.8091 29.7904 52.0198 29.5807 52.2733 29.4351L57.5017 26.4318C57.7551 26.2863 58.0423 26.2099 58.3345 26.2104C58.6267 26.2109 58.9136 26.2882 59.1665 26.4346C59.4194 26.581 59.6294 26.7913 59.7754 27.0444C59.9214 27.2975 59.9983 27.5846 59.9983 27.8768V45.4118C59.9983 45.7049 59.9209 45.9929 59.774 46.2466C59.6271 46.5003 59.4159 46.7108 59.1617 46.8568L39.43 58.1901C39.178 58.3348 38.8925 58.4111 38.6019 58.4114C38.3113 58.4117 38.0257 58.336 37.7733 58.1918L22.2883 49.3351C22.0332 49.1894 21.8212 48.9789 21.6737 48.7248C21.5262 48.4708 21.4484 48.1822 21.4483 47.8885V39.0468C21.4483 39.0368 21.46 39.0301 21.47 39.0351C21.4783 39.0401 21.49 39.0351 21.49 39.0235V39.0135C21.49 39.0068 21.4933 39.0001 21.5 38.9968L34.2533 31.6701C34.265 31.6635 34.26 31.6451 34.2467 31.6451C34.2431 31.6451 34.2397 31.6437 34.2372 31.6412C34.2347 31.6387 34.2333 31.6353 34.2333 31.6318L34.2583 22.9635C34.2595 22.6703 34.1833 22.3821 34.0375 22.1278C33.8917 21.8735 33.6814 21.6622 33.4279 21.5151C33.1743 21.368 32.8865 21.2904 32.5933 21.2902C32.3002 21.2899 32.0122 21.3669 31.7583 21.5135L22.28 26.9751C22.027 27.1208 21.7402 27.1974 21.4483 27.1974C21.1564 27.1974 20.8696 27.1208 20.6167 26.9751L11.1083 21.5001C10.855 21.3543 10.5678 21.2776 10.2755 21.2778C9.98316 21.278 9.69605 21.3551 9.44294 21.5013C9.18983 21.6475 8.97963 21.8578 8.83343 22.1109C8.68723 22.364 8.61018 22.6511 8.61 22.9435V38.6101C8.6102 38.9021 8.53368 39.1891 8.38809 39.4422C8.24251 39.6953 8.03298 39.9057 7.78048 40.0524C7.52799 40.1991 7.24139 40.2768 6.94938 40.2779C6.65738 40.279 6.37022 40.2033 6.11667 40.0584L0.840002 37.0418C0.584421 36.8958 0.37206 36.6847 0.224517 36.43C0.0769728 36.1753 -0.000491168 35.8861 2.34339e-06 35.5918L0.046669 8.20845C0.0473041 7.91652 0.124606 7.62988 0.270836 7.37722C0.417067 7.12456 0.627097 6.91474 0.879905 6.76876C1.13271 6.62277 1.41943 6.54576 1.71136 6.54541C2.00328 6.54507 2.29018 6.6214 2.54334 6.76678L20.6183 17.1485C20.8709 17.2935 21.1571 17.3698 21.4483 17.3698C21.7396 17.3698 22.0258 17.2935 22.2783 17.1485L40.3483 6.76678C40.6019 6.62119 40.8892 6.54485 41.1816 6.54542C41.4739 6.54598 41.761 6.62344 42.0139 6.77001C42.2669 6.91658 42.4768 7.12711 42.6227 7.38047C42.7686 7.63383 42.8452 7.9211 42.845 8.21345V35.6035C42.8451 35.8965 42.768 36.1843 42.6214 36.438C42.4748 36.6917 42.2639 36.9022 42.01 37.0485L32.5467 42.4985C32.2925 42.645 32.0815 42.856 31.935 43.1102C31.7885 43.3644 31.7117 43.6528 31.7124 43.9462C31.7131 44.2396 31.7912 44.5276 31.9388 44.7812C32.0865 45.0347 32.2985 45.2448 32.5533 45.3901L37.7733 48.3618C38.0256 48.5054 38.311 48.5806 38.6013 48.5801C38.8916 48.5795 39.1767 48.5031 39.4283 48.3585L50.57 41.9601ZM51.665 17.3901C51.6652 17.6849 51.7436 17.9743 51.8922 18.2288C52.0407 18.4834 52.2542 18.694 52.5107 18.8392C52.7672 18.9844 53.0576 19.059 53.3523 19.0553C53.647 19.0517 53.9355 18.9699 54.1883 18.8184L59.1883 15.8185C59.4352 15.6705 59.6395 15.4613 59.7814 15.211C59.9234 14.9607 59.9981 14.6779 59.9983 14.3901V8.27678C59.9978 7.98218 59.9192 7.69298 59.7705 7.43865C59.6218 7.18431 59.4084 6.97393 59.152 6.82894C58.8955 6.68394 58.6052 6.60951 58.3106 6.61323C58.016 6.61695 57.7277 6.69869 57.475 6.85012L52.475 9.85012C52.2282 9.99802 52.0238 10.2073 51.8819 10.4576C51.7399 10.7079 51.6652 10.9907 51.665 11.2785V17.3901Z" fill="#007FFF"/>
</g>
</svg>
