<svg width="65" height="64" viewBox="0 0 65 64" fill="none" xmlns="http://www.w3.org/2000/svg">
<g id="OneSignal" clip-path="url(#clip0_75_963)">
<path id="Vector" d="M32.0307 0.0136719C14.3365 0.0491448 -0.0773826 14.5745 0.0239687 32.2671C0.0693298 40.1763 3.03609 47.7898 8.35412 53.6444C13.6722 59.4991 20.9663 63.1818 28.8348 63.985C28.9123 63.9928 28.9902 63.9757 29.0573 63.9362C29.1245 63.8967 29.1773 63.8369 29.2081 63.7654C29.2288 63.7185 29.2398 63.6679 29.2402 63.6167V32.0829H26.7469C26.6984 32.0831 26.6504 32.0738 26.6055 32.0554C26.5606 32.037 26.5198 32.0099 26.4855 31.9757C26.4511 31.9415 26.4238 31.9008 26.4052 31.856C26.3866 31.8112 26.377 31.7632 26.377 31.7147V26.7383C26.3768 26.6897 26.3862 26.6415 26.4047 26.5965C26.4232 26.5515 26.4505 26.5106 26.4849 26.4763C26.5193 26.4419 26.5601 26.4146 26.6051 26.3961C26.6501 26.3776 26.6983 26.3682 26.7469 26.3684H34.5679C34.6164 26.3684 34.6644 26.378 34.7092 26.3966C34.754 26.4152 34.7947 26.4425 34.8289 26.4769C34.8631 26.5112 34.8902 26.552 34.9086 26.5969C34.927 26.6418 34.9364 26.6898 34.9361 26.7383V63.6167C34.9359 63.6684 34.9465 63.7195 34.9673 63.7668C34.988 63.8141 35.0185 63.8564 35.0568 63.8912C35.095 63.9259 35.1401 63.9522 35.1892 63.9684C35.2382 63.9845 35.2902 63.9902 35.3415 63.985C43.527 63.1501 51.0784 59.2009 56.4336 52.9543C61.7888 46.7076 64.5381 38.6415 64.1126 30.4246C63.6871 22.2076 60.1194 14.4686 54.1477 8.80851C48.1759 3.14839 40.257 0.000256417 32.029 0.0153611L32.0307 0.0136719ZM41.1439 56.8414C41.0883 56.8612 41.0287 56.8672 40.9702 56.8592C40.9117 56.8511 40.856 56.8291 40.8078 56.7949C40.7596 56.7608 40.7204 56.7156 40.6933 56.6631C40.6662 56.6107 40.6522 56.5524 40.6523 56.4934V51.2299C40.6522 51.1252 40.6818 51.0226 40.7377 50.9341C40.7937 50.8455 40.8736 50.7747 40.9682 50.7299C45.2254 48.7038 48.6614 45.2822 50.7051 41.0335C52.7489 36.7847 53.2775 31.9646 52.2031 27.3739C51.1288 22.7832 48.5161 18.6983 44.7991 15.7978C41.0822 12.8972 36.4848 11.3557 31.7706 11.4292C20.801 11.5981 11.7993 20.4444 11.4496 31.4106C11.3223 35.426 12.3674 39.3915 14.4575 42.8225C16.5475 46.2535 19.5918 49.0012 23.2182 50.7299C23.3132 50.7745 23.3935 50.8452 23.4497 50.9337C23.5059 51.0223 23.5358 51.125 23.5358 51.2299V56.4934C23.5357 56.5525 23.5214 56.6107 23.4941 56.6632C23.4669 56.7156 23.4274 56.7608 23.3791 56.7949C23.3308 56.829 23.275 56.851 23.2165 56.859C23.1579 56.8671 23.0983 56.8611 23.0426 56.8414C17.9329 54.966 13.5277 51.5571 10.4301 47.0816C7.33254 42.606 5.69388 37.2825 5.7385 31.8397C5.8635 17.5221 17.5628 5.83293 31.8838 5.7282C46.5155 5.60996 58.448 17.4782 58.448 32.0829C58.448 43.4393 51.2351 53.1404 41.1439 56.8414Z" fill="white"/>
</g>
<defs>
<clipPath id="clip0_75_963">
<rect width="64.1622" height="64" fill="white"/>
</clipPath>
</defs>
</svg>
