<svg width="56" height="64" viewBox="0 0 56 64" fill="none" xmlns="http://www.w3.org/2000/svg">
<g id="Sequelize" clip-path="url(#clip0_75_708)">
<g id="Group">
<path id="Vector" fill-rule="evenodd" clip-rule="evenodd" d="M27.7472 9.2888L47.5596 20.5605L55.4966 15.9778L27.8193 -0.00122368L0.00390625 15.9778L7.94094 20.5605L27.7462 9.2888" fill="#52B0E7"/>
<path id="Vector_2" fill-rule="evenodd" clip-rule="evenodd" d="M0.144 16.0635L8.15292 20.687V43.565L27.7485 54.8818V63.9586L0 48.0212L0.144798 16.0628" fill="#3C76C3"/>
<path id="Vector_3" fill-rule="evenodd" clip-rule="evenodd" d="M20.0703 27.5619L27.7845 32.0155V41.0911L23.7841 38.7794L20.0718 36.636L20.0704 27.5619" fill="#2E9D4D"/>
<path id="Vector_4" fill-rule="evenodd" clip-rule="evenodd" d="M35.6421 27.4776L27.7852 32.0133V41.0894L35.4979 36.6334L35.6421 27.4776Z" fill="#256F44"/>
<path id="Vector_5" fill-rule="evenodd" clip-rule="evenodd" d="M55.3545 16.0635L47.3456 20.687V43.3124L37.7646 49.0955L27.75 54.8814V63.9581L27.8221 63.9998L55.3806 48.0899L55.3552 16.0624" fill="#2E3B69"/>
<path id="Vector_6" fill-rule="evenodd" clip-rule="evenodd" d="M27.7845 32.0135L20.0703 27.5599V27.5055L27.7845 23.0512L27.8798 22.9961L31.7844 25.2509L35.6415 27.4774L27.7845 32.0135Z" fill="#9FD62B"/>
<path id="Vector_7" fill-rule="evenodd" clip-rule="evenodd" d="M10.2617 33.0109L17.9759 37.4648V46.5404L13.9755 44.2284L10.2632 42.0851L10.2618 33.0109" fill="#3C76C3"/>
<path id="Vector_8" fill-rule="evenodd" clip-rule="evenodd" d="M25.6908 33.0109L17.9766 37.4648V46.5404L25.6899 42.0846L25.6908 33.0109Z" fill="#2E3B69"/>
<path id="Vector_9" fill-rule="evenodd" clip-rule="evenodd" d="M17.9753 37.4648L10.2617 33.0116L14.1663 30.7026L17.9755 28.5025L25.6902 33.0116L17.9755 37.4648" fill="#52B0E7"/>
<path id="Vector_10" fill-rule="evenodd" clip-rule="evenodd" d="M30.1133 33.2441L37.8275 37.6979V46.7736L33.827 44.4616L30.1148 42.3185L30.1133 33.2441" fill="#3C76C3"/>
<path id="Vector_11" fill-rule="evenodd" clip-rule="evenodd" d="M45.5424 33.2441L37.8281 37.6979V46.7736L45.5413 42.318L45.5424 33.2441Z" fill="#2E3B69"/>
<path id="Vector_12" fill-rule="evenodd" clip-rule="evenodd" d="M37.8271 37.6979L30.1133 33.2445V33.1901L34.0179 30.9356L37.8271 28.7356L45.5417 33.2445L37.8271 37.6979Z" fill="#52B0E7"/>
<path id="Vector_13" fill-rule="evenodd" clip-rule="evenodd" d="M20.3829 38.9674L28.0969 43.4212V52.4966L24.0966 50.1849L20.3842 48.0415L20.3828 38.9674" fill="#3C76C3"/>
<path id="Vector_14" fill-rule="evenodd" clip-rule="evenodd" d="M35.8119 38.9674L28.0977 43.4212V52.4966L35.811 48.0411L35.8119 38.9674Z" fill="#2E3B69"/>
<path id="Vector_15" fill-rule="evenodd" clip-rule="evenodd" d="M28.0964 43.4199L20.3828 38.9665V38.9121L24.2872 36.6576L28.0964 34.4574L35.8111 38.9665L28.0964 43.4199Z" fill="#52B0E7"/>
<path id="Vector_16" fill-rule="evenodd" clip-rule="evenodd" d="M20.0703 15.4266L27.7845 19.8804V28.9561L23.7841 26.6441L20.0718 24.5009L20.0704 15.4266" fill="#3C76C3"/>
<path id="Vector_17" fill-rule="evenodd" clip-rule="evenodd" d="M35.6421 15.3446L27.7852 19.8802V28.9563L35.4979 24.5001L35.6421 15.3446Z" fill="#2E3B69"/>
<path id="Vector_18" fill-rule="evenodd" clip-rule="evenodd" d="M27.7845 19.8804L20.0703 15.4266V15.3722L27.7845 10.9179L27.8798 10.8631L31.7844 13.1176L35.6415 15.3443L27.7845 19.8804Z" fill="#52B0E7"/>
<path id="Vector_19" fill-rule="evenodd" clip-rule="evenodd" d="M10.2617 20.8778L17.9759 25.3315V34.4071L13.9755 32.0953L10.2632 29.952L10.2618 20.8778" fill="#3C76C3"/>
<path id="Vector_20" fill-rule="evenodd" clip-rule="evenodd" d="M25.6908 20.8778L17.9766 25.3315V34.4071L25.6899 29.9515L25.6908 20.8778Z" fill="#2E3B69"/>
<path id="Vector_21" fill-rule="evenodd" clip-rule="evenodd" d="M17.9753 25.3317L10.2617 20.8785L14.1663 18.5695L17.9755 16.3692L25.6902 20.8785L17.9755 25.3317" fill="#52B0E7"/>
<path id="Vector_22" fill-rule="evenodd" clip-rule="evenodd" d="M30.1133 21.111L37.8275 25.5649V34.6405L33.827 32.3285L30.1148 30.1852L30.1133 21.111Z" fill="#3C76C3"/>
<path id="Vector_23" fill-rule="evenodd" clip-rule="evenodd" d="M45.5424 21.111L37.8281 25.5649V34.6405L45.5413 30.1847L45.5424 21.111Z" fill="#2E3B69"/>
<path id="Vector_24" fill-rule="evenodd" clip-rule="evenodd" d="M37.8271 25.5648L30.1133 21.1114V21.057L34.0179 18.8025L37.8271 16.6023L45.5417 21.1114L37.8271 25.5648Z" fill="#52B0E7"/>
<path id="Vector_25" fill-rule="evenodd" clip-rule="evenodd" d="M20.3829 26.8343L28.0969 31.2879V40.3635L24.0966 38.0518L20.3842 35.9084L20.3828 26.8343" fill="#3C76C3"/>
<path id="Vector_26" fill-rule="evenodd" clip-rule="evenodd" d="M35.8119 26.8343L28.0977 31.2879V40.3635L35.811 35.9077L35.8119 26.8343Z" fill="#2E3B69"/>
<path id="Vector_27" fill-rule="evenodd" clip-rule="evenodd" d="M28.0964 31.2859L20.3828 26.8328V26.7784L24.2872 24.5236L28.0964 22.3234L35.8111 26.8328L28.0964 31.2859Z" fill="#52B0E7"/>
</g>
</g>
<defs>
<clipPath id="clip0_75_708">
<rect width="55.4985" height="64" fill="white"/>
</clipPath>
</defs>
</svg>
