<svg width="52" height="64" viewBox="0 0 52 64" fill="none" xmlns="http://www.w3.org/2000/svg">
<g id="Storybook" clip-path="url(#clip0_75_622)">
<path id="Vector" d="M2.00869 58.9779L0.0254862 6.16706C-0.00444288 5.32828 0.294527 4.51101 0.858631 3.88954C1.42274 3.26806 2.20733 2.89158 3.04508 2.84039L47.9551 0.031916C48.3939 0.00391583 48.8338 0.0662263 49.2475 0.214995C49.6613 0.363763 50.0401 0.595826 50.3606 0.896834C50.6811 1.19784 50.9364 1.5614 51.1108 1.96502C51.2852 2.36864 51.375 2.80374 51.3745 3.24343V60.7852C51.3741 61.2196 51.2857 61.6495 51.1147 62.0488C50.9437 62.4482 50.6935 62.8088 50.3794 63.1089C50.0653 63.4089 49.6936 63.6423 49.2869 63.7949C48.8801 63.9475 48.4467 64.0161 48.0127 63.9967L5.07946 62.0679C4.2729 62.0315 3.50948 61.6933 2.94065 61.1204C2.37183 60.5474 2.03917 59.7847 2.00869 58.9779Z" fill="#FF4785"/>
<path id="Vector_2" fill-rule="evenodd" clip-rule="evenodd" d="M44.4254 0.25293L38.2455 0.636776L37.9448 7.88827C37.9411 7.979 37.9632 8.06892 38.0086 8.14757C38.054 8.22622 38.1208 8.29037 38.2012 8.33258C38.2816 8.37479 38.3723 8.39332 38.4628 8.38601C38.5533 8.37871 38.6399 8.34587 38.7125 8.29131L41.5273 6.15457L43.9072 8.02902C43.979 8.08589 44.0657 8.121 44.1568 8.13019C44.248 8.13938 44.3399 8.12228 44.4217 8.08089C44.5034 8.03951 44.5716 7.97558 44.6182 7.89667C44.6648 7.81775 44.6878 7.72715 44.6845 7.63557L44.4254 0.25293ZM39.6145 24.5312C38.4854 25.4109 30.0535 26.009 30.0535 24.7583C30.2327 19.9826 28.0959 19.7747 26.906 19.7747C25.7801 19.7747 23.88 20.1138 23.88 22.6728C23.88 25.2797 26.6565 26.7511 29.916 28.4784C34.5445 30.9318 40.1519 33.9035 40.1519 41.3757C40.1519 48.5408 34.3302 52.4944 26.9092 52.4944C19.2483 52.4944 12.5533 49.3949 13.3082 38.6504C13.6057 37.3901 23.3458 37.6907 23.3458 38.6504C23.2243 43.0838 24.2351 44.3889 26.7876 44.3889C28.7485 44.3889 29.6377 43.3077 29.6377 41.4908C29.6377 38.7367 26.7461 37.1118 23.4162 35.2437C18.9092 32.7135 13.6057 29.7355 13.6057 22.8999C13.6057 16.0802 18.295 11.5316 26.6693 11.5316C35.0435 11.5316 39.6145 16.0098 39.6145 24.5312Z" fill="white"/>
</g>
<defs>
<clipPath id="clip0_75_622">
<rect width="51.3842" height="64" fill="white"/>
</clipPath>
</defs>
</svg>
